<svg xmlns="http://www.w3.org/2000/svg" xmlns:xlink="http://www.w3.org/1999/xlink" xmlns:lucid="lucid" width="2160" height="1500"><g transform="translate(60 40)" lucid:page-tab-id="0_0"><path d="M-1806.87-1258.84h5484.6v3840.5h-5484.6z" fill="#fff"/><path d="M1040-14a6 6 0 0 1 6-6h1028a6 6 0 0 1 6 6v1448a6 6 0 0 1-6 6H1046a6 6 0 0 1-6-6zM-40-14a6 6 0 0 1 6-6H994a6 6 0 0 1 6 6v1448a6 6 0 0 1-6 6H-34a6 6 0 0 1-6-6z" stroke="#3a414a" stroke-width="4" fill="#fff"/><path d="M524.67 46.82c17.67 0 32 13.43 32 30s-14.33 30-32 30h-96c-17.68 0-32-13.43-32-30s14.32-30 32-30z" stroke="#3a414a" fill="#cfe4ff"/><use xlink:href="#a" transform="matrix(1,0,0,1,401.66666663231655,51.81649345531696) translate(41.66124131944444 30.989583333333332)"/><path d="M356.45 172.6a7.8 7.8 0 0 1 7.55-5.78h246.67a4.6 4.6 0 0 1 4.45 5.8L596.88 241a7.8 7.8 0 0 1-7.55 5.8H342.67a4.6 4.6 0 0 1-4.46-5.8z" stroke="#3a414a" fill="#f4d9ff"/><use xlink:href="#b" transform="matrix(1,0,0,1,341.66666663231655,171.81649345531696) translate(34.48872395833332 42.55208333333333)"/><use xlink:href="#c" transform="matrix(1,0,0,1,341.66666663231655,171.81649345531696) translate(101.16624131944444 42.55208333333333)"/><path d="M476.67 107.82v42.1" stroke="#3a414a" fill="none"/><path d="M477.17 107.83h-1v-.5h1z" stroke="#3a414a" stroke-width=".05" fill="#3a414a"/><path d="M476.67 164.7l-4.64-14.27h9.27z" stroke="#3a414a" fill="#3a414a"/><path d="M471.07 289a15.43 15.43 0 0 1 11.2 0l168.8 65.64a2.33 2.33 0 0 1 0 4.35l-168.8 65.64a15.43 15.43 0 0 1-11.2 0L302.27 359a2.33 2.33 0 0 1 0-4.36z" stroke="#3a414a" fill="#fff7a1"/><use xlink:href="#d" transform="matrix(1,0,0,1,301.6666666323165,291.81649345531696) translate(121.66298611111111 46.92708333333333)"/><use xlink:href="#e" transform="matrix(1,0,0,1,301.6666666323165,291.81649345531696) translate(175.005 46.92708333333333)"/><use xlink:href="#f" transform="matrix(1,0,0,1,301.6666666323165,291.81649345531696) translate(68.32097222222221 70.35373263888889)"/><use xlink:href="#g" transform="matrix(1,0,0,1,301.6666666323165,291.81649345531696) translate(161.66949652777777 70.35373263888889)"/><use xlink:href="#h" transform="matrix(1,0,0,1,301.6666666323165,291.81649345531696) translate(201.67600694444445 70.35373263888889)"/><use xlink:href="#i" transform="matrix(1,0,0,1,301.6666666323165,291.81649345531696) translate(141.66624131944445 93.78038194444444)"/><path d="M476.67 247.82v23.24" stroke="#3a414a" fill="none"/><path d="M477.17 247.83h-1v-.5h1z" stroke="#3a414a" stroke-width=".05" fill="#3a414a"/><path d="M476.67 285.82l-4.64-14.26h9.27z" stroke="#3a414a" fill="#3a414a"/><path d="M204.33 417.8h-2v-51.6h2zm94.94-59.98h-71.22v-2h71.22z" stroke="#008a0e" stroke-width=".05" fill="#008a0e"/><path d="M300.35 356.14l-.08.68.08.67.12.32h-1.23v-2h1.23z" fill="#008a0e"/><path d="M300.37 356.15l-.08.67.07.67.14.34h-1.28v-2.05h1.3zm-1.1-.3v1.94h1.17l-.12-.3-.08-.68.08-.68.12-.3z" stroke="#008a0e" stroke-width=".05" fill="#008a0e"/><path d="M203.33 433.08l-4.63-14.26h9.27z" fill="#008a0e"/><path d="M203.33 436.32l-6-18.5h12zm-3.26-16.5l3.26 10.02 3.26-10.02z" stroke="#008a0e" stroke-width=".05" fill="#008a0e"/><use xlink:href="#j" transform="matrix(1,0,0,1,196.0477962578061,347.44149345531696) translate(0 14.800347222222223)"/><path d="M755.62 357.87l.7.83.6.94.4 1 .26 1.08.1 1.06v55.04h-2v-54.96l-.08-.82-.18-.77-.13-.32v-3.37zm-101.55-.05v-2h79.88v2z" stroke="#e81313" stroke-width=".05" fill="#e81313"/><path d="M654.1 357.82h-1.24l.13-.33.07-.68-.1-.68-.1-.32h1.22z" fill="#e81313"/><path d="M654.12 357.84h-1.3l.14-.35.08-.68-.08-.67-.13-.36h1.3zm-1.22-2l.1.3.1.68-.1.68-.1.3h1.17v-1.96z" stroke="#e81313" stroke-width=".05" fill="#e81313"/><path d="M756.67 433.08l-4.64-14.26h9.27z" fill="#e81313"/><path d="M756.67 436.32l-6-18.5h12zm-3.26-16.5l3.27 10.02 3.26-10.02z" stroke="#e81313" stroke-width=".05" fill="#e81313"/><use xlink:href="#k" transform="matrix(1,0,0,1,733.9478633957158,347.44149345531696) translate(0 14.800347222222223)"/><path d="M616.67 442.82a6 6 0 0 1 6-6h268a6 6 0 0 1 6 6v68a6 6 0 0 1-6 6h-268a6 6 0 0 1-6-6z" stroke="#3a414a" fill="#fff"/><use xlink:href="#l" transform="matrix(1,0,0,1,628.6666666323165,448.81649345531696) translate(107.99674479166667 21.989583333333332)"/><use xlink:href="#m" transform="matrix(1,0,0,1,628.6666666323165,448.81649345531696) translate(1.312717013888843 45.416232638888886)"/><path d="M63.33 442.82a6 6 0 0 1 6-6h268a6 6 0 0 1 6 6v68a6 6 0 0 1-6 6h-268a6 6 0 0 1-6-6z" stroke="#3a414a" fill="#fff"/><use xlink:href="#n" transform="matrix(1,0,0,1,75.33333329898323,448.81649345531696) translate(27.98372395833333 21.989583333333332)"/><use xlink:href="#o" transform="matrix(1,0,0,1,75.33333329898323,448.81649345531696) translate(94.66124131944444 21.989583333333332)"/><use xlink:href="#p" transform="matrix(1,0,0,1,75.33333329898323,448.81649345531696) translate(161.33875868055554 21.989583333333332)"/><use xlink:href="#q" transform="matrix(1,0,0,1,75.33333329898323,448.81649345531696) translate(61.32248263888887 45.416232638888886)"/><path d="M63.33 581.32a6 6 0 0 1 6-6h821.34a6 6 0 0 1 6 6v48a6 6 0 0 1-6 6H69.33a6 6 0 0 1-6-6z" stroke="#3a414a" fill="#e3fae3"/><use xlink:href="#r" transform="matrix(1,0,0,1,75.33333329898323,587.3166434553169) translate(218.30295138888886 25.239583333333332)"/><use xlink:href="#s" transform="matrix(1,0,0,1,75.33333329898323,587.3166434553169) translate(284.98046875 25.239583333333332)"/><use xlink:href="#t" transform="matrix(1,0,0,1,75.33333329898323,587.3166434553169) translate(378.32899305555554 25.239583333333332)"/><use xlink:href="#u" transform="matrix(1,0,0,1,75.33333329898323,587.3166434553169) translate(418.3355034722222 25.239583333333332)"/><use xlink:href="#v" transform="matrix(1,0,0,1,75.33333329898323,587.3166434553169) translate(511.68402777777777 25.239583333333332)"/><path d="M480 636.32v43.1" stroke="#3a414a" fill="none"/><path d="M480.5 636.33h-1v-.5h1z" stroke="#3a414a" stroke-width=".05" fill="#3a414a"/><path d="M480 694.2l-4.63-14.27h9.26z" stroke="#3a414a" fill="#3a414a"/><path d="M283.33 702.32a6 6 0 0 1 6-6h381.34a6 6 0 0 1 6 6v48a6 6 0 0 1-6 6H289.33a6 6 0 0 1-6-6z" stroke="#3a414a" fill="#fff"/><use xlink:href="#w" transform="matrix(1,0,0,1,295.3333330624753,708.316543455317) translate(58.31271701388887 25.239583333333332)"/><use xlink:href="#x" transform="matrix(1,0,0,1,295.3333330624753,708.316543455317) translate(124.99023437499999 25.239583333333332)"/><use xlink:href="#y" transform="matrix(1,0,0,1,295.3333330624753,708.316543455317) translate(231.67426215277777 25.239583333333332)"/><path d="M756.67 517.82v40.61" stroke="#3a414a" fill="none"/><path d="M757.17 517.83h-1v-.5h1z" stroke="#3a414a" stroke-width=".05" fill="#3a414a"/><path d="M756.67 573.2l-4.64-14.27h9.27z" stroke="#3a414a" fill="#3a414a"/><path d="M203.33 517.82v40.61" stroke="#3a414a" fill="none"/><path d="M203.83 517.83h-1v-.5h1z" stroke="#3a414a" stroke-width=".05" fill="#3a414a"/><path d="M203.33 573.2l-4.63-14.27h9.27z" stroke="#3a414a" fill="#3a414a"/><path d="M480 757.32v32.55" stroke="#3a414a" fill="none"/><path d="M480.5 757.33h-1v-.5h1z" stroke="#3a414a" stroke-width=".05" fill="#3a414a"/><path d="M480 804.63l-4.63-14.26h9.26z" stroke="#3a414a" fill="#3a414a"/><path d="M63.33 812.75a6 6 0 0 1 6-6h821.34a6 6 0 0 1 6 6v48a6 6 0 0 1-6 6H69.33a6 6 0 0 1-6-6z" stroke="#3a414a" fill="#e3fae3"/><use xlink:href="#z" transform="matrix(1,0,0,1,75.33333336768362,818.7498201914282) translate(184.96419270833331 25.239583333333332)"/><use xlink:href="#A" transform="matrix(1,0,0,1,75.33333336768362,818.7498201914282) translate(291.6482204861111 25.239583333333332)"/><use xlink:href="#B" transform="matrix(1,0,0,1,75.33333336768362,818.7498201914282) translate(384.9967447916667 25.239583333333332)"/><use xlink:href="#u" transform="matrix(1,0,0,1,75.33333336768362,818.7498201914282) translate(451.67426215277777 25.239583333333332)"/><use xlink:href="#v" transform="matrix(1,0,0,1,75.33333336768362,818.7498201914282) translate(545.0227864583333 25.239583333333332)"/><path d="M480 867.75v34.68" stroke="#3a414a" fill="none"/><path d="M480.5 867.76h-1v-.5h1z" stroke="#3a414a" stroke-width=".05" fill="#3a414a"/><path d="M480 917.2l-4.63-14.27h9.26z" stroke="#3a414a" fill="#3a414a"/><path d="M474.25 920.15a20.33 20.33 0 0 1 11.5 0l191.83 56.6a1.77 1.77 0 0 1 0 3.4l-191.83 56.6a20.33 20.33 0 0 1-11.5 0l-191.83-56.6a1.77 1.77 0 0 1 0-3.4z" stroke="#3a414a" fill="#fff7a1"/><use xlink:href="#C" transform="matrix(1,0,0,1,281.6666666323166,923.4496899830951) translate(157.99848958333334 32.23958333333333)"/><use xlink:href="#D" transform="matrix(1,0,0,1,281.6666666323166,923.4496899830951) translate(198.005 32.23958333333333)"/><use xlink:href="#A" transform="matrix(1,0,0,1,281.6666666323166,923.4496899830951) translate(58.48221354166663 55.666232638888886)"/><use xlink:href="#E" transform="matrix(1,0,0,1,281.6666666323166,923.4496899830951) translate(151.8307378472222 55.666232638888886)"/><use xlink:href="#F" transform="matrix(1,0,0,1,281.6666666323166,923.4496899830951) translate(231.84375868055554 55.666232638888886)"/><use xlink:href="#G" transform="matrix(1,0,0,1,281.6666666323166,923.4496899830951) translate(151.83073784722222 79.09288194444444)"/><path d="M197.67 1058.32h-2v-63.3h2zm81.98-78.87h-66.98v-2h66.98z" stroke="#008a0e" stroke-width=".05" fill="#008a0e"/><path d="M280.72 977.87l-.07.58.07.58.17.42h-1.28v-2h1.27z" fill="#008a0e"/><path d="M280.75 977.88l-.08.57.08.57.18.46h-1.33v-2.06h1.33zm-1.1-.4v1.94h1.2l-.15-.4-.08-.57.08-.58.16-.4z" stroke="#008a0e" stroke-width=".05" fill="#008a0e"/><path d="M196.67 1073.58l-4.64-14.26h9.27z" fill="#008a0e"/><path d="M196.67 1076.82l-6-18.5h12zm-3.26-16.5l3.27 10.02 3.26-10.02z" stroke="#008a0e" stroke-width=".05" fill="#008a0e"/><use xlink:href="#j" transform="matrix(1,0,0,1,180.66406253435028,976.2674830952307) translate(0 14.800347222222223)"/><path d="M83.12 1083.1a7.8 7.8 0 0 1 7.55-5.78H324a4.6 4.6 0 0 1 4.45 5.8l-18.24 68.4a7.8 7.8 0 0 1-7.53 5.8H69.33a4.6 4.6 0 0 1-4.45-5.8z" stroke="#3a414a" fill="#f4d9ff"/><use xlink:href="#H" transform="matrix(1,0,0,1,68.33333336768362,1082.3164434553169) translate(24.820972222222203 29.427083333333332)"/><use xlink:href="#I" transform="matrix(1,0,0,1,68.33333336768362,1082.3164434553169) translate(131.505 29.427083333333332)"/><use xlink:href="#J" transform="matrix(1,0,0,1,68.33333336768362,1082.3164434553169) translate(85.49848958333332 52.853732638888886)"/><path d="M732.02 1058.32h-2v-47.15h2zm-5.9-80.8l1.06.27 1.02.4.94.58.83.72.72.83.56.94.42 1.02.26 1.05.08 1.06v8.02h-2v-7.93l-.06-.83-.2-.76-.3-.72-.4-.67-.5-.58-.6-.5-.67-.42-.74-.3-.76-.2-.82-.05h-44.63v-2h44.7z" stroke="#e81313" stroke-width=".05" fill="#e81313"/><path d="M680.38 979.45h-1.27l.18-.42.07-.58-.07-.58-.17-.42h1.28z" fill="#e81313"/><path d="M680.4 979.48h-1.33l.18-.46.08-.57-.08-.57-.18-.46h1.33zm-1.26-2l.16.4.08.57-.08.58-.16.4h1.2v-1.95z" stroke="#e81313" stroke-width=".05" fill="#e81313"/><path d="M731.02 1073.58l-4.63-14.26h9.26z" fill="#e81313"/><path d="M731.02 1076.82l-6-18.5h12zm-3.26-16.5l3.26 10.02 3.26-10.02z" stroke="#e81313" stroke-width=".05" fill="#e81313"/><use xlink:href="#k" transform="matrix(1,0,0,1,720.3519254417112,992.4239895939397) translate(0 14.800347222222223)"/><path d="M636.45 1083.1a7.8 7.8 0 0 1 7.55-5.78h246.67a4.6 4.6 0 0 1 4.45 5.8l-18.24 68.4a7.8 7.8 0 0 1-7.55 5.8H622.67a4.6 4.6 0 0 1-4.46-5.8z" stroke="#3a414a" fill="#f4d9ff"/><use xlink:href="#K" transform="matrix(1,0,0,1,621.6666667010168,1082.3164434553169) translate(17.985468750000003 29.427083333333332)"/><use xlink:href="#L" transform="matrix(1,0,0,1,621.6666667010168,1082.3164434553169) translate(97.99848958333335 29.427083333333332)"/><use xlink:href="#M" transform="matrix(1,0,0,1,621.6666667010168,1082.3164434553169) translate(164.67600694444445 29.427083333333332)"/><use xlink:href="#N" transform="matrix(1,0,0,1,621.6666667010168,1082.3164434553169) translate(218.01802083333334 29.427083333333332)"/><use xlink:href="#O" transform="matrix(1,0,0,1,621.6666667010168,1082.3164434553169) translate(98.66624131944444 52.853732638888886)"/><path d="M196.67 1158.32v24.75" stroke="#3a414a" fill="none"/><path d="M197.17 1158.33h-1v-.5h1z" stroke="#3a414a" stroke-width=".05" fill="#3a414a"/><path d="M196.67 1197.83l-4.64-14.26h9.27z" stroke="#3a414a" fill="#3a414a"/><path d="M123.33 1205.45a6 6 0 0 1 6-6h701.34a6 6 0 0 1 6 6v48a6 6 0 0 1-6 6H129.33a6 6 0 0 1-6-6z" stroke="#3a414a" fill="#fff"/><use xlink:href="#P" transform="matrix(1,0,0,1,135.33333313117555,1211.4495803659515) translate(218.31271701388886 25.239583333333332)"/><use xlink:href="#x" transform="matrix(1,0,0,1,135.33333313117555,1211.4495803659515) translate(284.990234375 25.239583333333332)"/><use xlink:href="#y" transform="matrix(1,0,0,1,135.33333313117555,1211.4495803659515) translate(391.67426215277777 25.239583333333332)"/><path d="M756.67 1158.32V1182.7" stroke="#3a414a" fill="none"/><path d="M757.17 1158.33h-1v-.5h1z" stroke="#3a414a" stroke-width=".05" fill="#3a414a"/><path d="M756.67 1197.46l-4.64-14.27h9.27z" stroke="#3a414a" fill="#3a414a"/><path d="M480 1260.45v35.85" stroke="#3a414a" fill="none"/><path d="M480.5 1260.46h-1v-.5h1z" stroke="#3a414a" stroke-width=".05" fill="#3a414a"/><path d="M480 1311.07l-4.63-14.27h9.26z" stroke="#3a414a" fill="#3a414a"/><path d="M528 1313.18c17.67 0 32 13.43 32 30s-14.33 30-32 30h-96c-17.67 0-32-13.43-32-30s14.33-30 32-30z" stroke="#3a414a" fill="#dfe3e8"/><use xlink:href="#Q" transform="matrix(1,0,0,1,405.0000000560038,1318.183506544683) translate(54.99674479166667 30.989583333333332)"/><path d="M1608 262.42c17.67 0 32 13.43 32 30s-14.33 30-32 30h-96c-17.67 0-32-13.43-32-30s14.33-30 32-30z" stroke="#3a414a" fill="#cfe4ff"/><use xlink:href="#R" transform="matrix(1,0,0,1,1485,267.4172228346456) translate(41.66124131944444 30.989583333333332)"/><path d="M1560 323.42v42.1" stroke="#3a414a" fill="none"/><path d="M1560.5 323.43h-1v-.5h1z" stroke="#3a414a" stroke-width=".05" fill="#3a414a"/><path d="M1560 380.3l-4.63-14.27h9.27z" stroke="#3a414a" fill="#3a414a"/><path d="M1100 388.42a6 6 0 0 1 6-6h908a6 6 0 0 1 6 6v48a6 6 0 0 1-6 6h-908a6 6 0 0 1-6-6z" stroke="#3a414a" fill="#e3fae3"/><use xlink:href="#z" transform="matrix(1,0,0,1,1112,394.4172228346456) translate(241.29969618055554 25.239583333333332)"/><use xlink:href="#s" transform="matrix(1,0,0,1,1112,394.4172228346456) translate(347.98372395833337 25.239583333333332)"/><use xlink:href="#B" transform="matrix(1,0,0,1,1112,394.4172228346456) translate(441.3322482638889 25.239583333333332)"/><use xlink:href="#S" transform="matrix(1,0,0,1,1112,394.4172228346456) translate(508.009765625 25.239583333333332)"/><use xlink:href="#v" transform="matrix(1,0,0,1,1112,394.4172228346456) translate(574.6872829861111 25.239583333333332)"/><path d="M1560 443.42v21.6" stroke="#3a414a" fill="none"/><path d="M1560.5 443.43h-1v-.5h1z" stroke="#3a414a" stroke-width=".05" fill="#3a414a"/><path d="M1560 479.8l-4.63-14.27h9.27z" stroke="#3a414a" fill="#3a414a"/><path d="M1440 487.92a6 6 0 0 1 6-6h228a6 6 0 0 1 6 6v48a6 6 0 0 1-6 6h-228a6 6 0 0 1-6-6z" stroke="#3a414a" fill="#fff"/><use xlink:href="#T" transform="matrix(1,0,0,1,1452,493.9172728346456) translate(7.983723958333314 25.239583333333332)"/><use xlink:href="#U" transform="matrix(1,0,0,1,1452,493.9172728346456) translate(128.00325520833334 25.239583333333332)"/><path d="M1560 542.92v33.65" stroke="#3a414a" fill="none"/><path d="M1560.5 542.93h-1v-.5h1z" stroke="#3a414a" stroke-width=".05" fill="#3a414a"/><path d="M1560 591.34l-4.63-14.27h9.27z" stroke="#3a414a" fill="#3a414a"/><path d="M1554.35 594.43a16.8 16.8 0 0 1 11.3 0l128.7 45.97a2.14 2.14 0 0 1 0 4.03l-128.7 45.97a16.8 16.8 0 0 1-11.3 0l-128.7-45.97a2.14 2.14 0 0 1 0-4.03z" stroke="#3a414a" fill="#fff7a1"/><use xlink:href="#V" transform="matrix(1,0,0,1,1425,597.4172228346456) translate(68.32748263888888 40.98958333333333)"/><use xlink:href="#h" transform="matrix(1,0,0,1,1425,597.4172228346456) translate(121.66949652777777 40.98958333333333)"/><use xlink:href="#W" transform="matrix(1,0,0,1,1425,597.4172228346456) translate(94.99848958333334 64.41623263888889)"/><path d="M1100.5 718.42a6 6 0 0 1 6-6h308a6 6 0 0 1 6 6v68a6 6 0 0 1-6 6h-308a6 6 0 0 1-6-6z" stroke="#3a414a" fill="#fff"/><g><use xlink:href="#X" transform="matrix(1,0,0,1,1112.4999500000004,724.4172228346456) translate(27.980468749999986 21.989583333333332)"/><use xlink:href="#Y" transform="matrix(1,0,0,1,1112.4999500000004,724.4172228346456) translate(148 21.989583333333332)"/><use xlink:href="#Z" transform="matrix(1,0,0,1,1112.4999500000004,724.4172228346456) translate(228.01302083333337 21.989583333333332)"/><use xlink:href="#aa" transform="matrix(1,0,0,1,1112.4999500000004,724.4172228346456) translate(74.65473090277777 45.416232638888886)"/><use xlink:href="#ab" transform="matrix(1,0,0,1,1112.4999500000004,724.4172228346456) translate(154.66775173611111 45.416232638888886)"/></g><path d="M1700 718.42a6 6 0 0 1 6-6h308a6 6 0 0 1 6 6v68a6 6 0 0 1-6 6h-308a6 6 0 0 1-6-6z" stroke="#3a414a" fill="#e3fae3"/><g><use xlink:href="#ac" transform="matrix(1,0,0,1,1712,724.4172228346456) translate(34.648220486111114 21.989583333333332)"/><use xlink:href="#ad" transform="matrix(1,0,0,1,1712,724.4172228346456) translate(101.32573784722223 21.989583333333332)"/><use xlink:href="#t" transform="matrix(1,0,0,1,1712,724.4172228346456) translate(168.00325520833334 21.989583333333332)"/><use xlink:href="#ae" transform="matrix(1,0,0,1,1712,724.4172228346456) translate(208.009765625 21.989583333333332)"/><use xlink:href="#v" transform="matrix(1,0,0,1,1712,724.4172228346456) translate(107.99348958333333 45.416232638888886)"/></g><path d="M1260.5 793.42v30.1" stroke="#3a414a" fill="none"/><path d="M1261 793.43h-1v-.5h1z" stroke="#3a414a" stroke-width=".05" fill="#3a414a"/><path d="M1260.5 838.3l-4.63-14.27h9.27z" stroke="#3a414a" fill="#3a414a"/><path d="M1140.5 846.42a6 6 0 0 1 6-6h228a6 6 0 0 1 6 6v67.93a6 6 0 0 1-6 6h-228a6 6 0 0 1-6-6z" stroke="#3a414a" fill="#fff"/><g><use xlink:href="#af" transform="matrix(1,0,0,1,1152.4999500000004,852.4174228346458) translate(14.651475694444429 35.98958333333333)"/><use xlink:href="#U" transform="matrix(1,0,0,1,1152.4999500000004,852.4174228346458) translate(121.33550347222223 35.98958333333333)"/></g><path d="M1260.5 921.35v31.62" stroke="#3a414a" fill="none"/><path d="M1261 921.36h-1v-.5h1z" stroke="#3a414a" stroke-width=".05" fill="#3a414a"/><path d="M1260.5 967.73l-4.63-14.26h9.27z" stroke="#3a414a" fill="#3a414a"/><path d="M1100.5 975.85a6 6 0 0 1 6-6h308a6 6 0 0 1 6 6v78.57a6 6 0 0 1-6 6h-308a6 6 0 0 1-6-6z" stroke="#3a414a" fill="#e3fae3"/><g><use xlink:href="#r" transform="matrix(1,0,0,1,1112.4999500000004,981.8507995707566) translate(21.31271701388887 28.958333333333332)"/><use xlink:href="#E" transform="matrix(1,0,0,1,1112.4999500000004,981.8507995707566) translate(87.99023437499999 28.958333333333332)"/><use xlink:href="#F" transform="matrix(1,0,0,1,1112.4999500000004,981.8507995707566) translate(168.00325520833331 28.958333333333332)"/><use xlink:href="#s" transform="matrix(1,0,0,1,1112.4999500000004,981.8507995707566) translate(7.977213541666657 52.384982638888886)"/><use xlink:href="#t" transform="matrix(1,0,0,1,1112.4999500000004,981.8507995707566) translate(101.32573784722223 52.384982638888886)"/><use xlink:href="#S" transform="matrix(1,0,0,1,1112.4999500000004,981.8507995707566) translate(141.33224826388889 52.384982638888886)"/><use xlink:href="#v" transform="matrix(1,0,0,1,1112.4999500000004,981.8507995707566) translate(208.009765625 52.384982638888886)"/></g><path d="M1908 982.5c17.67 0 32 14.6 32 32.63s-14.33 32.65-32 32.65h-96c-17.67 0-32-14.62-32-32.65 0-18.02 14.33-32.64 32-32.64z" stroke="#3a414a" fill="#dfe3e8"/><g><use xlink:href="#Q" transform="matrix(1,0,0,1,1785,987.4924553658143) translate(54.99674479166667 35.98958333333333)"/></g><path d="M1860 793.42v172.2" stroke="#3a414a" fill="none"/><path d="M1860.5 793.43h-1v-.5h1z" stroke="#3a414a" stroke-width=".05" fill="#3a414a"/><path d="M1860 980.37l-4.63-14.26h9.27z" stroke="#3a414a" fill="#3a414a"/><path d="M1421.5 1015.13h341.62" stroke="#3a414a" fill="none"/><path d="M1421.5 1015.63h-.5v-1h.5z" stroke="#3a414a" stroke-width=".05" fill="#3a414a"/><path d="M1777.88 1015.13l-14.26 4.64v-9.27z" stroke="#3a414a" fill="#3a414a"/><path d="M1291.36 643.42h-24.82l-.82.06-.76.18-.73.3-.67.4-.6.52-.5.6-.4.67-.3.72-.2.77-.06.82v44.95h-2V648.4l.08-1.06.26-1.07.42-1 .57-.95.72-.83.83-.72.94-.57 1.02-.42 1.06-.26 1.06-.08h24.9zm131.37 0h-99.37v-2h99.37z" stroke="#008a0e" stroke-width=".05" fill="#008a0e"/><path d="M1423.8 641.77l-.08.65.08.64.14.36h-1.24v-2h1.24z" fill="#008a0e"/><path d="M1423.83 641.78l-.08.64.08.63.15.4h-1.3v-2.06h1.3zm-1.1-.34v1.95h1.17l-.12-.33-.08-.65.08-.65.13-.33z" stroke="#008a0e" stroke-width=".05" fill="#008a0e"/><path d="M1260.5 708.68l-4.63-14.26h9.27z" fill="#008a0e"/><path d="M1260.5 711.92l-6-18.5h12zm-3.26-16.5l3.26 10.03 3.26-10.04z" stroke="#008a0e" stroke-width=".05" fill="#008a0e"/><g><use xlink:href="#j" transform="matrix(1,0,0,1,1291.3596440449676,633.0422228346456) translate(0 14.800347222222223)"/></g><path d="M1855.1 641.5l1.06.26 1.02.42.94.57.83.72.72.83.57.94.42 1 .26 1.08.08 1.06v45.03h-2v-44.94l-.07-.82-.18-.77-.3-.72-.4-.67-.52-.6-.6-.5-.66-.4-.73-.32-.76-.18-.82-.06h-30.4v-2h30.48zm-157.82 1.92v-2h104.94v2z" stroke="#e81313" stroke-width=".05" fill="#e81313"/><path d="M1697.3 643.42h-1.24l.14-.36.08-.64-.08-.65-.14-.35h1.24z" fill="#e81313"/><path d="M1697.33 643.44h-1.3l.14-.4.08-.62-.08-.64-.15-.4h1.3zm-1.23-2l.12.33.08.65-.08.65-.13.32h1.18v-1.96z" stroke="#e81313" stroke-width=".05" fill="#e81313"/><path d="M1860 708.68l-4.63-14.26h9.27z" fill="#e81313"/><path d="M1860 711.92l-6-18.5h12zm-3.26-16.5l3.26 10.03 3.26-10.04z" stroke="#e81313" stroke-width=".05" fill="#e81313"/><g><use xlink:href="#k" transform="matrix(1,0,0,1,1802.2193240105883,633.0422228346456) translate(0 14.800347222222223)"/></g><path d="M0 52.82a6 6 0 0 1 6-6h228a6 6 0 0 1 6 6v48a6 6 0 0 1-6 6H6a6 6 0 0 1-6-6z" stroke="#000" stroke-opacity="0" fill="#fff" fill-opacity="0"/><g><use xlink:href="#ag" transform="matrix(1,0,0,1,5,51.81649345531696) translate(13.840000000000032 37.484999999999985)"/><use xlink:href="#ah" transform="matrix(1,0,0,1,5,51.81649345531696) translate(99.6 37.484999999999985)"/></g><path d="M1080 34.42a6 6 0 0 1 6-6h268a6 6 0 0 1 6 6v84.8a6 6 0 0 1-6 6h-268a6 6 0 0 1-6-6z" stroke="#000" stroke-opacity="0" fill="#fff" fill-opacity="0"/><g><use xlink:href="#ai" transform="matrix(1,0,0,1,1085,33.41649345531698) translate(7.2000000000000455 56.109999999999985)"/><use xlink:href="#ah" transform="matrix(1,0,0,1,1085,33.41649345531698) translate(146.23999999999998 56.109999999999985)"/></g><defs><path fill="#3a414a" d="M614-1226c-167 1-283 53-283 213 0 183 186 193 334 234 230 63 463 120 463 409 0 286-219 387-518 390C309 23 131-98 79-338l185-37c34 165 149 248 351 246 184-2 324-58 324-238 0-203-207-221-372-266-210-57-422-111-422-377 0-267 201-356 470-360 279-5 430 101 480 324l-188 33c-28-141-121-215-293-213" id="aj"/><path fill="#3a414a" d="M682 16c-209 0-323-80-324-285v-671H190v-142h170l58-282h120v282h432v142H538v652c2 114 60 155 182 155 106 0 209-16 297-34v137C921-4 806 16 682 16" id="ak"/><path fill="#3a414a" d="M1000-272c3 95 12 159 101 161 21 0 41-3 59-7V-6c-44 10-86 16-139 16-141 2-191-84-197-217h-6C748-76 648 20 446 20c-207 0-318-120-318-322 0-266 194-348 454-354l236-4c12-191-40-305-222-305-140 0-220 47-232 172l-188-17c33-204 181-292 423-292 255 0 401 118 401 364v466zm-683-27c0 109 63 184 175 182 166-3 259-96 306-217 24-65 20-120 20-200-232 7-501-28-501 235" id="al"/><path fill="#3a414a" d="M839-1102c70 0 148 7 206 17v167c-112-18-268-36-363 15-129 69-208 203-208 395V0H294c-10-367 32-789-52-1082h171c21 75 41 161 48 250h5c67-152 152-270 373-270" id="am"/><g id="a"><use transform="matrix(0.010850694444444444,0,0,0.010850694444444444,0,0)" xlink:href="#aj"/><use transform="matrix(0.010850694444444444,0,0,0.010850694444444444,13.335503472222221,0)" xlink:href="#ak"/><use transform="matrix(0.010850694444444444,0,0,0.010850694444444444,26.671006944444443,0)" xlink:href="#al"/><use transform="matrix(0.010850694444444444,0,0,0.010850694444444444,40.006510416666664,0)" xlink:href="#am"/><use transform="matrix(0.010850694444444444,0,0,0.010850694444444444,53.342013888888886,0)" xlink:href="#ak"/></g><path fill="#3a414a" d="M385-1193v494h676v158H385V0H194v-1349h891v156H385" id="an"/><path fill="#3a414a" d="M615-1102c343 0 484 203 482 560-1 347-147 562-488 562-336 0-475-219-479-562-4-349 156-560 485-560zm-8 989c240 0 301-180 301-429 0-245-55-427-290-427-236 0-299 181-299 427 0 243 61 429 288 429" id="ao"/><path fill="#3a414a" d="M904-1102c199 0 220 177 220 381V0H956v-686c-3-114 0-215-60-264-70-33-125-4-158 71-26 56-39 140-39 252V0H531v-686c-3-114-1-215-61-264-78-41-136 24-157 84-24 69-39 159-39 259V0H105c-3-360 6-732-6-1082h149c6 50 3 123 8 175 36-100 83-195 216-195 135 0 166 79 196 196 42-105 93-196 236-196" id="ap"/><g id="b"><use transform="matrix(0.010850694444444444,0,0,0.010850694444444444,0,0)" xlink:href="#an"/><use transform="matrix(0.010850694444444444,0,0,0.010850694444444444,13.335503472222221,0)" xlink:href="#ao"/><use transform="matrix(0.010850694444444444,0,0,0.010850694444444444,26.671006944444443,0)" xlink:href="#am"/><use transform="matrix(0.010850694444444444,0,0,0.010850694444444444,40.006510416666664,0)" xlink:href="#ap"/></g><path fill="#3a414a" d="M873-819c-18-114-119-146-250-146-163 0-245 50-245 151 0 151 170 148 294 185 182 54 388 94 388 320 0 240-189 325-439 329-245 4-410-69-454-268l159-31c24 133 136 168 295 165 144-2 270-31 270-171 0-164-195-160-331-202-167-52-350-87-350-299 0-218 173-315 413-313 220 2 373 77 412 260" id="aq"/><path fill="#3a414a" d="M528 20c-247 0-343-132-343-381v-721h180v686c-4 177 45 284 224 277 194-8 279-136 279-336v-627h181c3 360-6 732 6 1082H885c-4-54-7-126-8-185h-3C809-64 714 20 528 20" id="ar"/><path fill="#3a414a" d="M365-904c58-129 161-200 334-200 130 0 228 46 293 138s98 233 98 420c0 189-34 331-102 425S824 20 698 20c-170 0-275-64-336-184 0 55-3 116-9 164H179c5-68 6-147 6-223v-1261h180c-2 193 4 394-4 580h4zm283 791c221 0 256-197 256-427 0-229-34-425-254-425-236 0-285 195-285 441 0 237 53 411 283 411" id="as"/><path fill="#3a414a" d="M745-142h380V0H143v-142h422v-798H246v-142h499v940zM545-1292v-192h200v192H545" id="at"/><path fill="#3a414a" d="M706-1102c241 0 344 136 343 381V0H868v-695c1-168-57-273-220-268-190 6-283 138-283 336V0H185c-3-360 6-732-6-1082h170c4 54 7 126 8 185h3c63-121 164-204 346-205" id="au"/><g id="c"><use transform="matrix(0.010850694444444444,0,0,0.010850694444444444,0,0)" xlink:href="#aq"/><use transform="matrix(0.010850694444444444,0,0,0.010850694444444444,13.335503472222221,0)" xlink:href="#ar"/><use transform="matrix(0.010850694444444444,0,0,0.010850694444444444,26.671006944444443,0)" xlink:href="#as"/><use transform="matrix(0.010850694444444444,0,0,0.010850694444444444,40.006510416666664,0)" xlink:href="#ap"/><use transform="matrix(0.010850694444444444,0,0,0.010850694444444444,53.342013888888886,0)" xlink:href="#at"/><use transform="matrix(0.010850694444444444,0,0,0.010850694444444444,66.67751736111111,0)" xlink:href="#aq"/><use transform="matrix(0.010850694444444444,0,0,0.010850694444444444,80.01302083333334,0)" xlink:href="#aq"/><use transform="matrix(0.010850694444444444,0,0,0.010850694444444444,93.34852430555557,0)" xlink:href="#at"/><use transform="matrix(0.010850694444444444,0,0,0.010850694444444444,106.6840277777778,0)" xlink:href="#ao"/><use transform="matrix(0.010850694444444444,0,0,0.010850694444444444,120.01953125000003,0)" xlink:href="#au"/></g><path fill="#3a414a" d="M473-1349c438-1 655 221 652 661C1122-268 945-8 532 0H162v-1349h311zm42 1193c308-4 416-205 418-532 2-330-131-509-459-505H353v1037h162" id="av"/><path fill="#3a414a" d="M865-914c-3-187-2-380-2-570h180v1261c0 76 1 155 6 223H877c-8-49-9-116-10-174h-5C801-44 708 26 530 26c-135 0-234-46-297-139s-95-232-95-419c0-377 131-566 392-566 176 0 271 63 335 184zm-286-51c-222 0-255 197-255 427 0 229 31 425 253 425 237 0 286-195 286-441 0-238-52-411-284-411" id="aw"/><g id="d"><use transform="matrix(0.010850694444444444,0,0,0.010850694444444444,0,0)" xlink:href="#av"/><use transform="matrix(0.010850694444444444,0,0,0.010850694444444444,13.335503472222221,0)" xlink:href="#at"/><use transform="matrix(0.010850694444444444,0,0,0.010850694444444444,26.671006944444443,0)" xlink:href="#aw"/></g><path fill="#3a414a" d="M617-1102c355 0 481 238 477 599H322c5 222 84 388 301 388 144 0 244-59 284-166l158 45C1002-72 854 20 623 20c-342 0-490-220-490-568 0-346 151-554 484-554zm291 461c-18-192-90-328-289-328-194 0-287 128-295 328h584" id="ax"/><g id="e"><use transform="matrix(0.010850694444444444,0,0,0.010850694444444444,0,0)" xlink:href="#ar"/><use transform="matrix(0.010850694444444444,0,0,0.010850694444444444,13.335503472222221,0)" xlink:href="#aq"/><use transform="matrix(0.010850694444444444,0,0,0.010850694444444444,26.671006944444443,0)" xlink:href="#ax"/><use transform="matrix(0.010850694444444444,0,0,0.010850694444444444,40.006510416666664,0)" xlink:href="#am"/></g><path fill="#3a414a" d="M698-1104c312 3 392 244 392 558 0 315-82 566-392 566-169 0-277-65-331-184h-5c8 188 2 394 4 589H185V-858c0-76-1-156-6-224h175c6 52 9 120 10 178h4c58-122 150-202 330-200zm-49 991c225 0 255-203 255-433 0-225-32-419-253-419-236 0-285 192-285 441 0 237 53 411 283 411" id="ay"/><path fill="#3a414a" d="M736-142h380V0H134v-142h422v-1200H267v-142h469v1342" id="az"/><g id="f"><use transform="matrix(0.010850694444444444,0,0,0.010850694444444444,0,0)" xlink:href="#ar"/><use transform="matrix(0.010850694444444444,0,0,0.010850694444444444,13.335503472222221,0)" xlink:href="#ay"/><use transform="matrix(0.010850694444444444,0,0,0.010850694444444444,26.671006944444443,0)" xlink:href="#az"/><use transform="matrix(0.010850694444444444,0,0,0.010850694444444444,40.006510416666664,0)" xlink:href="#ao"/><use transform="matrix(0.010850694444444444,0,0,0.010850694444444444,53.342013888888886,0)" xlink:href="#al"/><use transform="matrix(0.010850694444444444,0,0,0.010850694444444444,66.67751736111111,0)" xlink:href="#aw"/></g><g id="g"><use transform="matrix(0.010850694444444444,0,0,0.010850694444444444,0,0)" xlink:href="#al"/><use transform="matrix(0.010850694444444444,0,0,0.010850694444444444,13.335503472222221,0)" xlink:href="#au"/></g><g id="h"><use transform="matrix(0.010850694444444444,0,0,0.010850694444444444,0,0)" xlink:href="#ax"/><use transform="matrix(0.010850694444444444,0,0,0.010850694444444444,13.335503472222221,0)" xlink:href="#ap"/><use transform="matrix(0.010850694444444444,0,0,0.010850694444444444,26.671006944444443,0)" xlink:href="#al"/><use transform="matrix(0.010850694444444444,0,0,0.010850694444444444,40.006510416666664,0)" xlink:href="#at"/><use transform="matrix(0.010850694444444444,0,0,0.010850694444444444,53.342013888888886,0)" xlink:href="#az"/><use transform="matrix(0.010850694444444444,0,0,0.010850694444444444,66.67751736111111,0)" xlink:href="#aq"/></g><path fill="#3a414a" d="M390 276c167 0 266-82 266-251v-965H249v-142h587V28c-4 270-165 397-431 397-107 0-208-16-288-43V242c80 18 173 34 273 34zm246-1568v-192h200v192H636" id="aA"/><path fill="#3a414a" d="M594-1370c273 0 479 100 479 368 0 320-313 334-421 548-13 28-20 60-21 97H456c9-310 312-328 416-543 13-27 19-59 19-94 0-165-127-226-295-226-189 0-295 102-318 272L94-960c39-259 205-410 500-410zM448 0v-201h195V0H448" id="aB"/><g id="i"><use transform="matrix(0.010850694444444444,0,0,0.010850694444444444,0,0)" xlink:href="#aA"/><use transform="matrix(0.010850694444444444,0,0,0.010850694444444444,13.335503472222221,0)" xlink:href="#aq"/><use transform="matrix(0.010850694444444444,0,0,0.010850694444444444,26.671006944444443,0)" xlink:href="#ao"/><use transform="matrix(0.010850694444444444,0,0,0.010850694444444444,40.006510416666664,0)" xlink:href="#au"/><use transform="matrix(0.010850694444444444,0,0,0.010850694444444444,53.342013888888886,0)" xlink:href="#aB"/></g><path fill="#333" d="M761-556V0H467v-556L3-1349h309l300 566 304-566h309" id="aC"/><path fill="#333" d="M1113-274C1038-96 884 20 626 20c-352 0-526-209-526-566 0-358 185-556 530-556 358 0 496 251 499 615H395c5 180 68 319 245 319 102 0 186-45 208-129zM857-663c-6-177-128-307-315-247-94 30-141 121-145 247h460" id="aD"/><path fill="#333" d="M622-916c-112 2-200 14-200 111 0 90 89 101 168 121 234 58 514 77 514 368C1104-4 751 54 434 5 267-21 161-112 121-270l247-37c24 111 113 145 252 141 114-3 226-12 226-124 0-101-103-113-192-134-225-54-490-76-490-351 0-247 201-328 458-328 245 0 413 88 457 292l-249 26c-16-98-92-133-208-131" id="aE"/><g id="j"><use transform="matrix(0.008680555555555556,0,0,0.008680555555555556,0,0)" xlink:href="#aC"/><use transform="matrix(0.008680555555555556,0,0,0.008680555555555556,10.668402777777779,0)" xlink:href="#aD"/><use transform="matrix(0.008680555555555556,0,0,0.008680555555555556,21.336805555555557,0)" xlink:href="#aE"/></g><path fill="#333" d="M865-312c-44-312-23-686-28-1037h257V0H748L364-1010c44 304 24 668 28 1010H135v-1349h337" id="aF"/><path fill="#333" d="M616-1102c361 0 521 202 521 560 0 354-171 562-527 562C259 20 92-192 92-542c0-351 169-560 524-560zm-9 930c200-2 236-165 236-370 0-199-27-367-223-367-195 0-233 146-233 367 0 129 18 223 55 282s92 88 165 88" id="aG"/><g id="k"><use transform="matrix(0.008680555555555556,0,0,0.008680555555555556,0,0)" xlink:href="#aF"/><use transform="matrix(0.008680555555555556,0,0,0.008680555555555556,10.668402777777779,0)" xlink:href="#aG"/></g><path fill="#3a414a" d="M604-135c236 0 291-142 291-376v-838h190v859c5 340-142 510-480 510-326 0-463-164-463-492v-877h191v851c-3 222 46 363 271 363" id="aH"/><g id="l"><use transform="matrix(0.010850694444444444,0,0,0.010850694444444444,0,0)" xlink:href="#aH"/><use transform="matrix(0.010850694444444444,0,0,0.010850694444444444,13.335503472222221,0)" xlink:href="#aq"/><use transform="matrix(0.010850694444444444,0,0,0.010850694444444444,26.671006944444443,0)" xlink:href="#ax"/></g><path fill="#3a414a" d="M334-464v-160h560v160H334" id="aI"/><path fill="#3a414a" d="M932 0L611-444 288 0H94l415-556-397-526h199l300 421 298-421h201L713-558 1133 0H932" id="aJ"/><path fill="#3a414a" d="M496 0v-299h235V0H496" id="aK"/><g id="m"><use transform="matrix(0.010850694444444444,0,0,0.010850694444444444,0,0)" xlink:href="#ax"/><use transform="matrix(0.010850694444444444,0,0,0.010850694444444444,13.335503472222221,0)" xlink:href="#ap"/><use transform="matrix(0.010850694444444444,0,0,0.010850694444444444,26.671006944444443,0)" xlink:href="#al"/><use transform="matrix(0.010850694444444444,0,0,0.010850694444444444,40.006510416666664,0)" xlink:href="#at"/><use transform="matrix(0.010850694444444444,0,0,0.010850694444444444,53.342013888888886,0)" xlink:href="#az"/><use transform="matrix(0.010850694444444444,0,0,0.010850694444444444,66.67751736111111,0)" xlink:href="#aq"/><use transform="matrix(0.010850694444444444,0,0,0.010850694444444444,80.01302083333334,0)" xlink:href="#aI"/><use transform="matrix(0.010850694444444444,0,0,0.010850694444444444,93.34852430555557,0)" xlink:href="#ax"/><use transform="matrix(0.010850694444444444,0,0,0.010850694444444444,106.6840277777778,0)" xlink:href="#aJ"/><use transform="matrix(0.010850694444444444,0,0,0.010850694444444444,120.01953125000003,0)" xlink:href="#al"/><use transform="matrix(0.010850694444444444,0,0,0.010850694444444444,133.35503472222226,0)" xlink:href="#ap"/><use transform="matrix(0.010850694444444444,0,0,0.010850694444444444,146.69053819444449,0)" xlink:href="#ay"/><use transform="matrix(0.010850694444444444,0,0,0.010850694444444444,160.0260416666667,0)" xlink:href="#az"/><use transform="matrix(0.010850694444444444,0,0,0.010850694444444444,173.36154513888894,0)" xlink:href="#ax"/><use transform="matrix(0.010850694444444444,0,0,0.010850694444444444,186.69704861111117,0)" xlink:href="#aK"/><use transform="matrix(0.010850694444444444,0,0,0.010850694444444444,200.0325520833334,0)" xlink:href="#aA"/><use transform="matrix(0.010850694444444444,0,0,0.010850694444444444,213.36805555555563,0)" xlink:href="#aq"/><use transform="matrix(0.010850694444444444,0,0,0.010850694444444444,226.70355902777786,0)" xlink:href="#ao"/><use transform="matrix(0.010850694444444444,0,0,0.010850694444444444,240.03906250000006,0)" xlink:href="#au"/></g><path fill="#3a414a" d="M1121-976c0 225-142 341-344 379L1177 0H957L591-575H353V0H162v-1349h482c281 3 477 100 477 373zM633-726c181-1 296-73 296-247 0-149-101-223-304-223H353v470h280" id="aL"/><g id="n"><use transform="matrix(0.010850694444444444,0,0,0.010850694444444444,0,0)" xlink:href="#aL"/><use transform="matrix(0.010850694444444444,0,0,0.010850694444444444,13.335503472222221,0)" xlink:href="#ax"/><use transform="matrix(0.010850694444444444,0,0,0.010850694444444444,26.671006944444443,0)" xlink:href="#al"/><use transform="matrix(0.010850694444444444,0,0,0.010850694444444444,40.006510416666664,0)" xlink:href="#aw"/></g><g id="o"><use transform="matrix(0.010850694444444444,0,0,0.010850694444444444,0,0)" xlink:href="#aA"/><use transform="matrix(0.010850694444444444,0,0,0.010850694444444444,13.335503472222221,0)" xlink:href="#aq"/><use transform="matrix(0.010850694444444444,0,0,0.010850694444444444,26.671006944444443,0)" xlink:href="#ao"/><use transform="matrix(0.010850694444444444,0,0,0.010850694444444444,40.006510416666664,0)" xlink:href="#au"/></g><path fill="#3a414a" d="M1048-32c-2 300-135 456-433 456-222-1-358-88-400-267l184-25c22 99 100 157 222 156 184-2 248-125 248-315 0-64 3-133-2-194C807-100 706-13 524-12c-306 0-381-228-381-537 0-318 85-550 400-550 164 0 271 83 325 202h3c1-60 3-134 12-185h171c-13 339-4 702-6 1050zM585-145c210-8 284-178 284-406 0-192-52-331-177-392-33-16-69-22-104-22-223 2-259 184-259 414 0 229 31 415 256 406" id="aM"/><g id="p"><use transform="matrix(0.010850694444444444,0,0,0.010850694444444444,0,0)" xlink:href="#ar"/><use transform="matrix(0.010850694444444444,0,0,0.010850694444444444,13.335503472222221,0)" xlink:href="#aq"/><use transform="matrix(0.010850694444444444,0,0,0.010850694444444444,26.671006944444443,0)" xlink:href="#at"/><use transform="matrix(0.010850694444444444,0,0,0.010850694444444444,40.006510416666664,0)" xlink:href="#au"/><use transform="matrix(0.010850694444444444,0,0,0.010850694444444444,53.342013888888886,0)" xlink:href="#aM"/></g><g id="q"><use transform="matrix(0.010850694444444444,0,0,0.010850694444444444,0,0)" xlink:href="#an"/><use transform="matrix(0.010850694444444444,0,0,0.010850694444444444,13.335503472222221,0)" xlink:href="#at"/><use transform="matrix(0.010850694444444444,0,0,0.010850694444444444,26.671006944444443,0)" xlink:href="#az"/><use transform="matrix(0.010850694444444444,0,0,0.010850694444444444,40.006510416666664,0)" xlink:href="#ax"/><use transform="matrix(0.010850694444444444,0,0,0.010850694444444444,53.342013888888886,0)" xlink:href="#aL"/><use transform="matrix(0.010850694444444444,0,0,0.010850694444444444,66.67751736111111,0)" xlink:href="#ax"/><use transform="matrix(0.010850694444444444,0,0,0.010850694444444444,80.01302083333334,0)" xlink:href="#al"/><use transform="matrix(0.010850694444444444,0,0,0.010850694444444444,93.34852430555557,0)" xlink:href="#aw"/><use transform="matrix(0.010850694444444444,0,0,0.010850694444444444,106.6840277777778,0)" xlink:href="#ax"/><use transform="matrix(0.010850694444444444,0,0,0.010850694444444444,120.01953125000003,0)" xlink:href="#am"/></g><path fill="#3a414a" d="M622-1349c296 4 497 117 497 404 0 282-193 424-485 431H353V0H162v-1349h460zm-15 684c195-3 320-88 320-277 0-184-129-255-328-254H353v531h254" id="aN"/><g id="r"><use transform="matrix(0.010850694444444444,0,0,0.010850694444444444,0,0)" xlink:href="#aN"/><use transform="matrix(0.010850694444444444,0,0,0.010850694444444444,13.335503472222221,0)" xlink:href="#ao"/><use transform="matrix(0.010850694444444444,0,0,0.010850694444444444,26.671006944444443,0)" xlink:href="#aq"/><use transform="matrix(0.010850694444444444,0,0,0.010850694444444444,40.006510416666664,0)" xlink:href="#ak"/></g><g id="s"><use transform="matrix(0.010850694444444444,0,0,0.010850694444444444,0,0)" xlink:href="#ax"/><use transform="matrix(0.010850694444444444,0,0,0.010850694444444444,13.335503472222221,0)" xlink:href="#ap"/><use transform="matrix(0.010850694444444444,0,0,0.010850694444444444,26.671006944444443,0)" xlink:href="#al"/><use transform="matrix(0.010850694444444444,0,0,0.010850694444444444,40.006510416666664,0)" xlink:href="#at"/><use transform="matrix(0.010850694444444444,0,0,0.010850694444444444,53.342013888888886,0)" xlink:href="#az"/><use transform="matrix(0.010850694444444444,0,0,0.010850694444444444,66.67751736111111,0)" xlink:href="#aq"/></g><g id="t"><use transform="matrix(0.010850694444444444,0,0,0.010850694444444444,0,0)" xlink:href="#ak"/><use transform="matrix(0.010850694444444444,0,0,0.010850694444444444,13.335503472222221,0)" xlink:href="#ao"/></g><path fill="#3a414a" d="M1018 0H810c-67-251-137-496-194-756C558-495 487-250 419 0H211L0-1349h189c48 393 110 772 142 1181 58-262 128-512 197-763h175c69 251 139 500 197 763 37-402 92-789 139-1181h189" id="aO"/><path fill="#3a414a" d="M914 0L548-499l-132 98V0H236v-1484h180v927l475-525h211L663-617 1125 0H914" id="aP"/><g id="u"><use transform="matrix(0.010850694444444444,0,0,0.010850694444444444,0,0)" xlink:href="#aO"/><use transform="matrix(0.010850694444444444,0,0,0.010850694444444444,13.335503472222221,0)" xlink:href="#ao"/><use transform="matrix(0.010850694444444444,0,0,0.010850694444444444,26.671006944444443,0)" xlink:href="#am"/><use transform="matrix(0.010850694444444444,0,0,0.010850694444444444,40.006510416666664,0)" xlink:href="#aP"/><use transform="matrix(0.010850694444444444,0,0,0.010850694444444444,53.342013888888886,0)" xlink:href="#ax"/><use transform="matrix(0.010850694444444444,0,0,0.010850694444444444,66.67751736111111,0)" xlink:href="#am"/></g><path fill="#3a414a" d="M709-1193V0H519v-1193H76v-156h1076v156H709" id="aQ"/><path fill="#3a414a" d="M648-963c-190 6-283 138-283 336V0H185v-1484h181c-2 197 6 404-9 587h3c62-120 159-205 339-205 242 0 351 135 350 381V0H868v-695c1-168-57-273-220-268" id="aR"/><g id="v"><use transform="matrix(0.010850694444444444,0,0,0.010850694444444444,0,0)" xlink:href="#aQ"/><use transform="matrix(0.010850694444444444,0,0,0.010850694444444444,13.335503472222221,0)" xlink:href="#aR"/><use transform="matrix(0.010850694444444444,0,0,0.010850694444444444,26.671006944444443,0)" xlink:href="#am"/><use transform="matrix(0.010850694444444444,0,0,0.010850694444444444,40.006510416666664,0)" xlink:href="#ax"/><use transform="matrix(0.010850694444444444,0,0,0.010850694444444444,53.342013888888886,0)" xlink:href="#al"/><use transform="matrix(0.010850694444444444,0,0,0.010850694444444444,66.67751736111111,0)" xlink:href="#aw"/></g><path fill="#3a414a" d="M1018 0H814c-67-224-138-444-200-673C552-442 476-224 407 0H204L21-1082h178c43 310 105 601 126 933 54-225 128-425 193-638h193c63 212 134 415 185 638 22-336 90-622 136-933h176" id="aS"/><g id="w"><use transform="matrix(0.010850694444444444,0,0,0.010850694444444444,0,0)" xlink:href="#aj"/><use transform="matrix(0.010850694444444444,0,0,0.010850694444444444,13.335503472222221,0)" xlink:href="#aR"/><use transform="matrix(0.010850694444444444,0,0,0.010850694444444444,26.671006944444443,0)" xlink:href="#ao"/><use transform="matrix(0.010850694444444444,0,0,0.010850694444444444,40.006510416666664,0)" xlink:href="#aS"/></g><path fill="#3a414a" d="M237 0v-1349h191v1193h672V0H237" id="aT"/><g id="x"><use transform="matrix(0.010850694444444444,0,0,0.010850694444444444,0,0)" xlink:href="#aT"/><use transform="matrix(0.010850694444444444,0,0,0.010850694444444444,13.335503472222221,0)" xlink:href="#ao"/><use transform="matrix(0.010850694444444444,0,0,0.010850694444444444,26.671006944444443,0)" xlink:href="#al"/><use transform="matrix(0.010850694444444444,0,0,0.010850694444444444,40.006510416666664,0)" xlink:href="#aw"/><use transform="matrix(0.010850694444444444,0,0,0.010850694444444444,53.342013888888886,0)" xlink:href="#at"/><use transform="matrix(0.010850694444444444,0,0,0.010850694444444444,66.67751736111111,0)" xlink:href="#au"/><use transform="matrix(0.010850694444444444,0,0,0.010850694444444444,80.01302083333334,0)" xlink:href="#aM"/></g><path fill="#3a414a" d="M631 20c-350 0-501-215-501-562 0-355 162-560 502-560 250 0 399 118 446 323l-192 14c-23-124-109-196-262-196-242 0-305 171-305 415 1 245 61 427 304 427 151 0 248-77 267-215l190 12C1039-107 883 20 631 20" id="aU"/><g id="y"><use transform="matrix(0.010850694444444444,0,0,0.010850694444444444,0,0)" xlink:href="#aj"/><use transform="matrix(0.010850694444444444,0,0,0.010850694444444444,13.335503472222221,0)" xlink:href="#aU"/><use transform="matrix(0.010850694444444444,0,0,0.010850694444444444,26.671006944444443,0)" xlink:href="#am"/><use transform="matrix(0.010850694444444444,0,0,0.010850694444444444,40.006510416666664,0)" xlink:href="#ax"/><use transform="matrix(0.010850694444444444,0,0,0.010850694444444444,53.342013888888886,0)" xlink:href="#ax"/><use transform="matrix(0.010850694444444444,0,0,0.010850694444444444,66.67751736111111,0)" xlink:href="#au"/></g><path fill="#3a414a" d="M715 0H502L69-1082h202c94 253 197 500 285 758 19 57 36 126 52 183 96-335 234-626 350-941h201" id="aV"/><g id="z"><use transform="matrix(0.010850694444444444,0,0,0.010850694444444444,0,0)" xlink:href="#aL"/><use transform="matrix(0.010850694444444444,0,0,0.010850694444444444,13.335503472222221,0)" xlink:href="#ax"/><use transform="matrix(0.010850694444444444,0,0,0.010850694444444444,26.671006944444443,0)" xlink:href="#aU"/><use transform="matrix(0.010850694444444444,0,0,0.010850694444444444,40.006510416666664,0)" xlink:href="#ax"/><use transform="matrix(0.010850694444444444,0,0,0.010850694444444444,53.342013888888886,0)" xlink:href="#at"/><use transform="matrix(0.010850694444444444,0,0,0.010850694444444444,66.67751736111111,0)" xlink:href="#aV"/><use transform="matrix(0.010850694444444444,0,0,0.010850694444444444,80.01302083333334,0)" xlink:href="#ax"/></g><g id="A"><use transform="matrix(0.010850694444444444,0,0,0.010850694444444444,0,0)" xlink:href="#am"/><use transform="matrix(0.010850694444444444,0,0,0.010850694444444444,13.335503472222221,0)" xlink:href="#ax"/><use transform="matrix(0.010850694444444444,0,0,0.010850694444444444,26.671006944444443,0)" xlink:href="#aq"/><use transform="matrix(0.010850694444444444,0,0,0.010850694444444444,40.006510416666664,0)" xlink:href="#ar"/><use transform="matrix(0.010850694444444444,0,0,0.010850694444444444,53.342013888888886,0)" xlink:href="#az"/><use transform="matrix(0.010850694444444444,0,0,0.010850694444444444,66.67751736111111,0)" xlink:href="#ak"/></g><path fill="#3a414a" d="M839-1335c-182-6-269 67-259 253h491v142H580V0H400v-940H138v-142h262c-15-293 132-408 418-402 94 2 200 7 281 21v145c-75-10-177-14-260-17" id="aW"/><g id="B"><use transform="matrix(0.010850694444444444,0,0,0.010850694444444444,0,0)" xlink:href="#aW"/><use transform="matrix(0.010850694444444444,0,0,0.010850694444444444,13.335503472222221,0)" xlink:href="#am"/><use transform="matrix(0.010850694444444444,0,0,0.010850694444444444,26.671006944444443,0)" xlink:href="#ao"/><use transform="matrix(0.010850694444444444,0,0,0.010850694444444444,40.006510416666664,0)" xlink:href="#ap"/></g><path fill="#3a414a" d="M202-1349h823v156H709v1037h316V0H202v-156h316v-1037H202v-156" id="aX"/><g id="C"><use transform="matrix(0.010850694444444444,0,0,0.010850694444444444,0,0)" xlink:href="#aX"/><use transform="matrix(0.010850694444444444,0,0,0.010850694444444444,13.335503472222221,0)" xlink:href="#aq"/></g><g id="D"><use transform="matrix(0.010850694444444444,0,0,0.010850694444444444,0,0)" xlink:href="#ak"/><use transform="matrix(0.010850694444444444,0,0,0.010850694444444444,13.335503472222221,0)" xlink:href="#aR"/><use transform="matrix(0.010850694444444444,0,0,0.010850694444444444,26.671006944444443,0)" xlink:href="#ax"/></g><g id="E"><use transform="matrix(0.010850694444444444,0,0,0.010850694444444444,0,0)" xlink:href="#aV"/><use transform="matrix(0.010850694444444444,0,0,0.010850694444444444,13.335503472222221,0)" xlink:href="#al"/><use transform="matrix(0.010850694444444444,0,0,0.010850694444444444,26.671006944444443,0)" xlink:href="#az"/><use transform="matrix(0.010850694444444444,0,0,0.010850694444444444,40.006510416666664,0)" xlink:href="#at"/><use transform="matrix(0.010850694444444444,0,0,0.010850694444444444,53.342013888888886,0)" xlink:href="#aw"/></g><path fill="#3a414a" d="M168 279c222 39 310-114 368-290L66-1082h192c120 299 249 590 362 896 115-301 235-597 351-896h190L705 0c-65 164-130 320-275 396-67 36-177 35-262 18V279" id="aY"/><g id="F"><use transform="matrix(0.010850694444444444,0,0,0.010850694444444444,0,0)" xlink:href="#al"/><use transform="matrix(0.010850694444444444,0,0,0.010850694444444444,13.335503472222221,0)" xlink:href="#au"/><use transform="matrix(0.010850694444444444,0,0,0.010850694444444444,26.671006944444443,0)" xlink:href="#al"/><use transform="matrix(0.010850694444444444,0,0,0.010850694444444444,40.006510416666664,0)" xlink:href="#az"/><use transform="matrix(0.010850694444444444,0,0,0.010850694444444444,53.342013888888886,0)" xlink:href="#aY"/><use transform="matrix(0.010850694444444444,0,0,0.010850694444444444,66.67751736111111,0)" xlink:href="#aq"/><use transform="matrix(0.010850694444444444,0,0,0.010850694444444444,80.01302083333334,0)" xlink:href="#ax"/><use transform="matrix(0.010850694444444444,0,0,0.010850694444444444,93.34852430555557,0)" xlink:href="#aw"/></g><g id="G"><use transform="matrix(0.010850694444444444,0,0,0.010850694444444444,0,0)" xlink:href="#ax"/><use transform="matrix(0.010850694444444444,0,0,0.010850694444444444,13.335503472222221,0)" xlink:href="#ap"/><use transform="matrix(0.010850694444444444,0,0,0.010850694444444444,26.671006944444443,0)" xlink:href="#al"/><use transform="matrix(0.010850694444444444,0,0,0.010850694444444444,40.006510416666664,0)" xlink:href="#at"/><use transform="matrix(0.010850694444444444,0,0,0.010850694444444444,53.342013888888886,0)" xlink:href="#az"/><use transform="matrix(0.010850694444444444,0,0,0.010850694444444444,66.67751736111111,0)" xlink:href="#aq"/><use transform="matrix(0.010850694444444444,0,0,0.010850694444444444,80.01302083333334,0)" xlink:href="#aB"/></g><g id="H"><use transform="matrix(0.010850694444444444,0,0,0.010850694444444444,0,0)" xlink:href="#av"/><use transform="matrix(0.010850694444444444,0,0,0.010850694444444444,13.335503472222221,0)" xlink:href="#at"/><use transform="matrix(0.010850694444444444,0,0,0.010850694444444444,26.671006944444443,0)" xlink:href="#aq"/><use transform="matrix(0.010850694444444444,0,0,0.010850694444444444,40.006510416666664,0)" xlink:href="#ay"/><use transform="matrix(0.010850694444444444,0,0,0.010850694444444444,53.342013888888886,0)" xlink:href="#az"/><use transform="matrix(0.010850694444444444,0,0,0.010850694444444444,66.67751736111111,0)" xlink:href="#al"/><use transform="matrix(0.010850694444444444,0,0,0.010850694444444444,80.01302083333334,0)" xlink:href="#aY"/></g><g id="I"><use transform="matrix(0.010850694444444444,0,0,0.010850694444444444,0,0)" xlink:href="#al"/><use transform="matrix(0.010850694444444444,0,0,0.010850694444444444,13.335503472222221,0)" xlink:href="#au"/><use transform="matrix(0.010850694444444444,0,0,0.010850694444444444,26.671006944444443,0)" xlink:href="#al"/><use transform="matrix(0.010850694444444444,0,0,0.010850694444444444,40.006510416666664,0)" xlink:href="#az"/><use transform="matrix(0.010850694444444444,0,0,0.010850694444444444,53.342013888888886,0)" xlink:href="#aY"/><use transform="matrix(0.010850694444444444,0,0,0.010850694444444444,66.67751736111111,0)" xlink:href="#aq"/><use transform="matrix(0.010850694444444444,0,0,0.010850694444444444,80.01302083333334,0)" xlink:href="#at"/><use transform="matrix(0.010850694444444444,0,0,0.010850694444444444,93.34852430555557,0)" xlink:href="#aq"/></g><g id="J"><use transform="matrix(0.010850694444444444,0,0,0.010850694444444444,0,0)" xlink:href="#am"/><use transform="matrix(0.010850694444444444,0,0,0.010850694444444444,13.335503472222221,0)" xlink:href="#ax"/><use transform="matrix(0.010850694444444444,0,0,0.010850694444444444,26.671006944444443,0)" xlink:href="#aq"/><use transform="matrix(0.010850694444444444,0,0,0.010850694444444444,40.006510416666664,0)" xlink:href="#ar"/><use transform="matrix(0.010850694444444444,0,0,0.010850694444444444,53.342013888888886,0)" xlink:href="#az"/><use transform="matrix(0.010850694444444444,0,0,0.010850694444444444,66.67751736111111,0)" xlink:href="#ak"/></g><path fill="#3a414a" d="M1034 0L896-382H333L196 0H0l510-1349h217L1228 0h-194zM847-531c-77-225-157-447-231-674-69 231-154 451-232 674h463" id="aZ"/><g id="K"><use transform="matrix(0.010850694444444444,0,0,0.010850694444444444,0,0)" xlink:href="#aZ"/><use transform="matrix(0.010850694444444444,0,0,0.010850694444444444,13.335503472222221,0)" xlink:href="#az"/><use transform="matrix(0.010850694444444444,0,0,0.010850694444444444,26.671006944444443,0)" xlink:href="#ax"/><use transform="matrix(0.010850694444444444,0,0,0.010850694444444444,40.006510416666664,0)" xlink:href="#am"/><use transform="matrix(0.010850694444444444,0,0,0.010850694444444444,53.342013888888886,0)" xlink:href="#ak"/></g><g id="L"><use transform="matrix(0.010850694444444444,0,0,0.010850694444444444,0,0)" xlink:href="#ar"/><use transform="matrix(0.010850694444444444,0,0,0.010850694444444444,13.335503472222221,0)" xlink:href="#aq"/><use transform="matrix(0.010850694444444444,0,0,0.010850694444444444,26.671006944444443,0)" xlink:href="#ax"/><use transform="matrix(0.010850694444444444,0,0,0.010850694444444444,40.006510416666664,0)" xlink:href="#am"/></g><g id="M"><use transform="matrix(0.010850694444444444,0,0,0.010850694444444444,0,0)" xlink:href="#al"/><use transform="matrix(0.010850694444444444,0,0,0.010850694444444444,13.335503472222221,0)" xlink:href="#au"/><use transform="matrix(0.010850694444444444,0,0,0.010850694444444444,26.671006944444443,0)" xlink:href="#aw"/></g><g id="N"><use transform="matrix(0.010850694444444444,0,0,0.010850694444444444,0,0)" xlink:href="#az"/><use transform="matrix(0.010850694444444444,0,0,0.010850694444444444,13.335503472222221,0)" xlink:href="#ao"/><use transform="matrix(0.010850694444444444,0,0,0.010850694444444444,26.671006944444443,0)" xlink:href="#aM"/></g><path fill="#3a414a" d="M162 0v-1349h919v156H353v422h668v154H353v461h769V0H162" id="ba"/><g id="O"><use transform="matrix(0.010850694444444444,0,0,0.010850694444444444,0,0)" xlink:href="#ba"/><use transform="matrix(0.010850694444444444,0,0,0.010850694444444444,13.335503472222221,0)" xlink:href="#am"/><use transform="matrix(0.010850694444444444,0,0,0.010850694444444444,26.671006944444443,0)" xlink:href="#am"/><use transform="matrix(0.010850694444444444,0,0,0.010850694444444444,40.006510416666664,0)" xlink:href="#ao"/><use transform="matrix(0.010850694444444444,0,0,0.010850694444444444,53.342013888888886,0)" xlink:href="#am"/></g><path fill="#3a414a" d="M875 0v-623H353V0H162v-1349h191v566h522v-566h191V0H875" id="bb"/><g id="P"><use transform="matrix(0.010850694444444444,0,0,0.010850694444444444,0,0)" xlink:href="#bb"/><use transform="matrix(0.010850694444444444,0,0,0.010850694444444444,13.335503472222221,0)" xlink:href="#at"/><use transform="matrix(0.010850694444444444,0,0,0.010850694444444444,26.671006944444443,0)" xlink:href="#aw"/><use transform="matrix(0.010850694444444444,0,0,0.010850694444444444,40.006510416666664,0)" xlink:href="#ax"/></g><g id="Q"><use transform="matrix(0.010850694444444444,0,0,0.010850694444444444,0,0)" xlink:href="#ba"/><use transform="matrix(0.010850694444444444,0,0,0.010850694444444444,13.335503472222221,0)" xlink:href="#au"/><use transform="matrix(0.010850694444444444,0,0,0.010850694444444444,26.671006944444443,0)" xlink:href="#aw"/></g><g id="R"><use transform="matrix(0.010850694444444444,0,0,0.010850694444444444,0,0)" xlink:href="#aj"/><use transform="matrix(0.010850694444444444,0,0,0.010850694444444444,13.335503472222221,0)" xlink:href="#ak"/><use transform="matrix(0.010850694444444444,0,0,0.010850694444444444,26.671006944444443,0)" xlink:href="#al"/><use transform="matrix(0.010850694444444444,0,0,0.010850694444444444,40.006510416666664,0)" xlink:href="#am"/><use transform="matrix(0.010850694444444444,0,0,0.010850694444444444,53.342013888888886,0)" xlink:href="#ak"/></g><path fill="#3a414a" d="M285-1169c8 382 2 780 4 1169H129v-1349h237c86 239 188 461 253 720 69-258 169-481 255-720h225V0H937c2-390-5-788 6-1169-75 255-170 488-259 729H547c-90-240-185-475-262-729" id="bc"/><g id="S"><use transform="matrix(0.010850694444444444,0,0,0.010850694444444444,0,0)" xlink:href="#bc"/><use transform="matrix(0.010850694444444444,0,0,0.010850694444444444,13.335503472222221,0)" xlink:href="#al"/><use transform="matrix(0.010850694444444444,0,0,0.010850694444444444,26.671006944444443,0)" xlink:href="#at"/><use transform="matrix(0.010850694444444444,0,0,0.010850694444444444,40.006510416666664,0)" xlink:href="#au"/></g><path fill="#3a414a" d="M713 0H515L10-1349h201C345-955 498-579 615-168c116-411 269-787 402-1181h201" id="bd"/><g id="T"><use transform="matrix(0.010850694444444444,0,0,0.010850694444444444,0,0)" xlink:href="#bd"/><use transform="matrix(0.010850694444444444,0,0,0.010850694444444444,13.335503472222221,0)" xlink:href="#al"/><use transform="matrix(0.010850694444444444,0,0,0.010850694444444444,26.671006944444443,0)" xlink:href="#az"/><use transform="matrix(0.010850694444444444,0,0,0.010850694444444444,40.006510416666664,0)" xlink:href="#at"/><use transform="matrix(0.010850694444444444,0,0,0.010850694444444444,53.342013888888886,0)" xlink:href="#aw"/><use transform="matrix(0.010850694444444444,0,0,0.010850694444444444,66.67751736111111,0)" xlink:href="#al"/><use transform="matrix(0.010850694444444444,0,0,0.010850694444444444,80.01302083333334,0)" xlink:href="#ak"/><use transform="matrix(0.010850694444444444,0,0,0.010850694444444444,93.34852430555557,0)" xlink:href="#ax"/></g><g id="U"><use transform="matrix(0.010850694444444444,0,0,0.010850694444444444,0,0)" xlink:href="#ax"/><use transform="matrix(0.010850694444444444,0,0,0.010850694444444444,13.335503472222221,0)" xlink:href="#ap"/><use transform="matrix(0.010850694444444444,0,0,0.010850694444444444,26.671006944444443,0)" xlink:href="#al"/><use transform="matrix(0.010850694444444444,0,0,0.010850694444444444,40.006510416666664,0)" xlink:href="#at"/><use transform="matrix(0.010850694444444444,0,0,0.010850694444444444,53.342013888888886,0)" xlink:href="#az"/><use transform="matrix(0.010850694444444444,0,0,0.010850694444444444,66.67751736111111,0)" xlink:href="#aq"/></g><g id="V"><use transform="matrix(0.010850694444444444,0,0,0.010850694444444444,0,0)" xlink:href="#aZ"/><use transform="matrix(0.010850694444444444,0,0,0.010850694444444444,13.335503472222221,0)" xlink:href="#am"/><use transform="matrix(0.010850694444444444,0,0,0.010850694444444444,26.671006944444443,0)" xlink:href="#ax"/></g><g id="W"><use transform="matrix(0.010850694444444444,0,0,0.010850694444444444,0,0)" xlink:href="#aV"/><use transform="matrix(0.010850694444444444,0,0,0.010850694444444444,13.335503472222221,0)" xlink:href="#al"/><use transform="matrix(0.010850694444444444,0,0,0.010850694444444444,26.671006944444443,0)" xlink:href="#az"/><use transform="matrix(0.010850694444444444,0,0,0.010850694444444444,40.006510416666664,0)" xlink:href="#at"/><use transform="matrix(0.010850694444444444,0,0,0.010850694444444444,53.342013888888886,0)" xlink:href="#aw"/><use transform="matrix(0.010850694444444444,0,0,0.010850694444444444,66.67751736111111,0)" xlink:href="#aB"/></g><path fill="#3a414a" d="M655-135c108 0 195-33 260-74v-336H622v-160h479v572C981-54 839 20 639 20c-388 0-526-306-526-701 0-406 129-689 529-689 261 0 392 137 461 331l-171 56c-47-131-122-231-288-231-281 0-330 245-330 533 0 179 28 314 84 407s142 139 257 139" id="be"/><g id="X"><use transform="matrix(0.010850694444444444,0,0,0.010850694444444444,0,0)" xlink:href="#be"/><use transform="matrix(0.010850694444444444,0,0,0.010850694444444444,13.335503472222221,0)" xlink:href="#ax"/><use transform="matrix(0.010850694444444444,0,0,0.010850694444444444,26.671006944444443,0)" xlink:href="#au"/><use transform="matrix(0.010850694444444444,0,0,0.010850694444444444,40.006510416666664,0)" xlink:href="#ax"/><use transform="matrix(0.010850694444444444,0,0,0.010850694444444444,53.342013888888886,0)" xlink:href="#am"/><use transform="matrix(0.010850694444444444,0,0,0.010850694444444444,66.67751736111111,0)" xlink:href="#al"/><use transform="matrix(0.010850694444444444,0,0,0.010850694444444444,80.01302083333334,0)" xlink:href="#ak"/><use transform="matrix(0.010850694444444444,0,0,0.010850694444444444,93.34852430555557,0)" xlink:href="#ax"/></g><g id="Y"><use transform="matrix(0.010850694444444444,0,0,0.010850694444444444,0,0)" xlink:href="#aq"/><use transform="matrix(0.010850694444444444,0,0,0.010850694444444444,13.335503472222221,0)" xlink:href="#ak"/><use transform="matrix(0.010850694444444444,0,0,0.010850694444444444,26.671006944444443,0)" xlink:href="#al"/><use transform="matrix(0.010850694444444444,0,0,0.010850694444444444,40.006510416666664,0)" xlink:href="#ak"/><use transform="matrix(0.010850694444444444,0,0,0.010850694444444444,53.342013888888886,0)" xlink:href="#aq"/></g><g id="Z"><use transform="matrix(0.010850694444444444,0,0,0.010850694444444444,0,0)" xlink:href="#aW"/><use transform="matrix(0.010850694444444444,0,0,0.010850694444444444,13.335503472222221,0)" xlink:href="#ao"/><use transform="matrix(0.010850694444444444,0,0,0.010850694444444444,26.671006944444443,0)" xlink:href="#am"/></g><g id="aa"><use transform="matrix(0.010850694444444444,0,0,0.010850694444444444,0,0)" xlink:href="#ax"/><use transform="matrix(0.010850694444444444,0,0,0.010850694444444444,13.335503472222221,0)" xlink:href="#aV"/><use transform="matrix(0.010850694444444444,0,0,0.010850694444444444,26.671006944444443,0)" xlink:href="#ax"/><use transform="matrix(0.010850694444444444,0,0,0.010850694444444444,40.006510416666664,0)" xlink:href="#am"/><use transform="matrix(0.010850694444444444,0,0,0.010850694444444444,53.342013888888886,0)" xlink:href="#aY"/></g><g id="ab"><use transform="matrix(0.010850694444444444,0,0,0.010850694444444444,0,0)" xlink:href="#ax"/><use transform="matrix(0.010850694444444444,0,0,0.010850694444444444,13.335503472222221,0)" xlink:href="#ap"/><use transform="matrix(0.010850694444444444,0,0,0.010850694444444444,26.671006944444443,0)" xlink:href="#al"/><use transform="matrix(0.010850694444444444,0,0,0.010850694444444444,40.006510416666664,0)" xlink:href="#at"/><use transform="matrix(0.010850694444444444,0,0,0.010850694444444444,53.342013888888886,0)" xlink:href="#az"/></g><g id="ac"><use transform="matrix(0.010850694444444444,0,0,0.010850694444444444,0,0)" xlink:href="#aN"/><use transform="matrix(0.010850694444444444,0,0,0.010850694444444444,13.335503472222221,0)" xlink:href="#ao"/><use transform="matrix(0.010850694444444444,0,0,0.010850694444444444,26.671006944444443,0)" xlink:href="#aq"/><use transform="matrix(0.010850694444444444,0,0,0.010850694444444444,40.006510416666664,0)" xlink:href="#ak"/></g><path fill="#e81313" d="M768-1103c247 0 336 167 336 416V0H824v-619c-3-164-24-273-171-273-164 0-229 142-229 312V0H143c-4-359 9-736-8-1082h268c7 63 12 146 13 215h4c67-145 160-236 348-236" id="bf"/><path fill="#e81313" d="M471 20c-247 0-336-169-336-415v-687h281v607c4 148 31 285 172 285 152 0 207-150 207-312v-580h281c4 359-9 736 8 1082H816c-7-63-11-146-12-215h-5C736-76 644 20 471 20" id="bg"/><path fill="#e81313" d="M794-190h353V0H118v-190h395v-1104H223v-190h571v1294" id="bh"/><g id="ad"><use transform="matrix(0.010850694444444444,0,0,0.010850694444444444,0,0)" xlink:href="#bf"/><use transform="matrix(0.010850694444444444,0,0,0.010850694444444444,13.335503472222221,0)" xlink:href="#bg"/><use transform="matrix(0.010850694444444444,0,0,0.010850694444444444,26.671006944444443,0)" xlink:href="#bh"/><use transform="matrix(0.010850694444444444,0,0,0.010850694444444444,40.006510416666664,0)" xlink:href="#bh"/></g><g id="ae"><use transform="matrix(0.010850694444444444,0,0,0.010850694444444444,0,0)" xlink:href="#bc"/><use transform="matrix(0.010850694444444444,0,0,0.010850694444444444,13.335503472222221,0)" xlink:href="#al"/><use transform="matrix(0.010850694444444444,0,0,0.010850694444444444,26.671006944444443,0)" xlink:href="#at"/><use transform="matrix(0.010850694444444444,0,0,0.010850694444444444,40.006510416666664,0)" xlink:href="#au"/></g><g id="af"><use transform="matrix(0.010850694444444444,0,0,0.010850694444444444,0,0)" xlink:href="#aZ"/><use transform="matrix(0.010850694444444444,0,0,0.010850694444444444,13.335503472222221,0)" xlink:href="#au"/><use transform="matrix(0.010850694444444444,0,0,0.010850694444444444,26.671006944444443,0)" xlink:href="#al"/><use transform="matrix(0.010850694444444444,0,0,0.010850694444444444,40.006510416666664,0)" xlink:href="#az"/><use transform="matrix(0.010850694444444444,0,0,0.010850694444444444,53.342013888888886,0)" xlink:href="#aY"/><use transform="matrix(0.010850694444444444,0,0,0.010850694444444444,66.67751736111111,0)" xlink:href="#aq"/><use transform="matrix(0.010850694444444444,0,0,0.010850694444444444,80.01302083333334,0)" xlink:href="#ax"/></g><path fill="#3a414a" d="M693-700l-51 100v500L692 0H482l50-100c2-134-6-278 8-400L411 0H311L182-521c18 126 7 280 10 421L242 0H32l50-100v-500L32-700h260c30 132 69 255 90 396 23-143 67-264 100-396h211" id="bi"/><path fill="#3a414a" d="M173-193h82l-40-152zM250 0l33-84-5-20H150l-5 20 34 84H-2l51-84 113-394-26-82h151L411-84l51 84H250" id="bj"/><path fill="#3a414a" d="M233-560l-42 84v392l40 84H26l41-84v-392l-41-84h207" id="bk"/><path fill="#3a414a" d="M478-560l-43 84V0h-94L165-306c9 66 2 149 4 222l41 84H32l42-84v-392l-42-84h135l174 311c-2-74 0-152-1-227l-43-84h181" id="bl"/><g id="ag"><use transform="matrix(0.03999999999999999,0,0,0.03999999999999999,0,0)" xlink:href="#bi"/><use transform="matrix(0.03999999999999999,0,0,0.03999999999999999,28.99999999999999,0)" xlink:href="#bj"/><use transform="matrix(0.03999999999999999,0,0,0.03999999999999999,47.399999999999984,0)" xlink:href="#bk"/><use transform="matrix(0.03999999999999999,0,0,0.03999999999999999,57.759999999999984,0)" xlink:href="#bl"/></g><path fill="#3a414a" d="M471-506l-89-44v-50h-61v500L371 0H121l50-100v-500h-60v50l-89 44v-194h449v194" id="bm"/><path fill="#3a414a" d="M503-560l-43 84v392l41 84H299l42-84v-162H194v162l41 84H32l42-84v-392l-42-84h205l-43 84v142h147v-142l-42-84h204" id="bn"/><path fill="#3a414a" d="M201-314h112l12-22c-3-46 10-109-13-136H191l10 22v136zm124 109l-11-21H201V0H32l42-83v-393l-42-84h378l42 83v130l-22 47-60 30 54 29 28 50v108l42 83H367l-42-82v-123" id="bo"/><path fill="#3a414a" d="M393-560v131l-82-43H191l8 16v122h34l82-41v171l-82-42h-34v144l-7 14h119l82-42V0H30l42-84v-392l-42-84h363" id="bp"/><path fill="#3a414a" d="M323-446l-13-26H189l11 22v343l-9 19h121l11-21v-337zM31 0l42-83v-393l-42-84h377l42 83v394L408 0H31" id="bq"/><g id="ah"><use transform="matrix(0.03999999999999999,0,0,0.03999999999999999,0,0)" xlink:href="#bm"/><use transform="matrix(0.03999999999999999,0,0,0.03999999999999999,19.719999999999995,0)" xlink:href="#bn"/><use transform="matrix(0.03999999999999999,0,0,0.03999999999999999,41.11999999999998,0)" xlink:href="#bo"/><use transform="matrix(0.03999999999999999,0,0,0.03999999999999999,61.95999999999998,0)" xlink:href="#bp"/><use transform="matrix(0.03999999999999999,0,0,0.03999999999999999,78.71999999999997,0)" xlink:href="#bj"/><use transform="matrix(0.03999999999999999,0,0,0.03999999999999999,97.11999999999996,0)" xlink:href="#bq"/></g><path fill="#3a414a" d="M738-600l-40-100h210l-60 99L675 0H555c-34-141-77-273-105-420-30 148-78 279-115 420H215L58-600-2-700h250l-40 100c31 126 68 246 94 377 35-166 84-318 126-477h100c38 159 82 312 114 477 27-131 64-251 96-377" id="br"/><path fill="#3a414a" d="M285-446l-12-26h-99l-11 24v339l10 21h102l10-21v-337zM78 0L36-83v-393l41-84h293l42 83v394L370 0H78" id="bs"/><path fill="#3a414a" d="M244-560l-43 84v130l117-214h160l-98 87-69 125L438-86l76 86H293l14-84-106-191v191l41 84H32l42-84v-392l-42-84h212" id="bt"/><g id="ai"><use transform="matrix(0.03999999999999999,0,0,0.03999999999999999,0,0)" xlink:href="#br"/><use transform="matrix(0.03999999999999999,0,0,0.03999999999999999,34.359999999999985,0)" xlink:href="#bs"/><use transform="matrix(0.03999999999999999,0,0,0.03999999999999999,52.27999999999998,0)" xlink:href="#bo"/><use transform="matrix(0.03999999999999999,0,0,0.03999999999999999,73.11999999999998,0)" xlink:href="#bt"/><use transform="matrix(0.03999999999999999,0,0,0.03999999999999999,93.67999999999996,0)" xlink:href="#bp"/><use transform="matrix(0.03999999999999999,0,0,0.03999999999999999,110.43999999999997,0)" xlink:href="#bo"/></g></defs></g></svg>