<svg xmlns="http://www.w3.org/2000/svg" xmlns:xlink="http://www.w3.org/1999/xlink" xmlns:lucid="lucid" width="2240" height="2115.9"><g transform="translate(-680 555.8974358974361)" lucid:page-tab-id="0_0"><path d="M0-1258.84h3677.73v3840.5H0z" fill="#fff"/><path d="M700-529.9a6 6 0 0 1 6-6h2188a6 6 0 0 1 6 6V1534a6 6 0 0 1-6 6H706a6 6 0 0 1-6-6z" stroke="#000" fill="#fff"/><path d="M860-420h272.37l68.1 68.1V66.36H860z" stroke="#008a0e" stroke-width="3" fill="#fff"/><path d="M1132.37-418.57v66.66h66.66" stroke="#008a0e" stroke-width="3" fill="#fff"/><use xlink:href="#a" transform="matrix(1,0,0,1,864.9999999999999,-415) translate(69.48437500000004 252.03125)"/><path d="M1395 941.84h272.37l68.1 68.1v418.26H1395z" stroke="#fcce14" stroke-width="3" fill="#fff"/><path d="M1667.37 943.26v66.67h66.67" stroke="#fcce14" stroke-width="3" fill="#fff"/><use xlink:href="#b" transform="matrix(1,0,0,1,1400.0067476383267,946.8353576248313) translate(58.81597222222227 252.03125)"/><path d="M860 260.92h272.37l68.1 68.1v418.27H860z" stroke="#fcce14" stroke-width="3" fill="#fff"/><path d="M1132.37 262.35V329h66.66" stroke="#fcce14" stroke-width="3" fill="#fff"/><use xlink:href="#c" transform="matrix(1,0,0,1,864.9999999999999,265.9176788124155) translate(18.142686631944457 246.69921875)"/><path d="M1395-420h272.37l68.1 68.1V66.36H1395z" stroke="#e81313" stroke-width="3" fill="#fff"/><path d="M1667.37-418.57v66.66h66.67" stroke="#e81313" stroke-width="3" fill="#fff"/><use xlink:href="#d" transform="matrix(1,0,0,1,1400.0067476383267,-415) translate(58.81597222222227 252.03125)"/><path d="M1930 260.92h272.38l68.1 68.1v418.27H1930z" stroke="#fcce14" stroke-width="3" fill="#fff"/><path d="M2202.38 262.35V329h66.66" stroke="#fcce14" stroke-width="3" fill="#fff"/><use xlink:href="#e" transform="matrix(1,0,0,1,1935.0134952766532,265.9176788124155) translate(69.48437500000004 252.03125)"/><path d="M1395 260.92h272.37l68.1 68.1v418.27H1395z" stroke="#fcce14" stroke-width="3" fill="#fff"/><path d="M1667.37 262.35V329h66.67" stroke="#fcce14" stroke-width="3" fill="#fff"/><use xlink:href="#f" transform="matrix(1,0,0,1,1400.0067476383267,265.9176788124155) translate(90.82118055555559 252.03125)"/><path d="M2416.38 260.92h272.37l68.1 68.1v418.27h-340.47z" stroke="#fcce14" stroke-width="3" fill="#fff"/><path d="M2688.75 262.35V329h66.66" stroke="#fcce14" stroke-width="3" fill="#fff"/><use xlink:href="#g" transform="matrix(1,0,0,1,2421.3832658569504,265.9176788124155) translate(16.142361111111143 248.4765625)"/><path d="M1205.46-176.8H1390" stroke="#3a414a" stroke-width="7" fill="none"/><path d="M1205.55-173.3h-3.6v-7h3.6zM1393.5-173.3h-3.58v-7h3.6z" stroke="#3a414a" stroke-width=".05" fill="#3a414a"/><path d="M1565.24 71.37v184.55" stroke="#3a414a" stroke-width="7" fill="none"/><path d="M1568.74 71.46h-7v-3.6h7zM1568.74 259.42h-7v-3.6h7z" stroke="#3a414a" stroke-width=".05" fill="#3a414a"/><path d="M1390 504.1h-184.54" stroke="#3a414a" stroke-width="7" fill="none"/><path d="M1393.5 507.6h-3.58v-7h3.6zM1205.55 507.6h-3.6v-7h3.6z" stroke="#3a414a" stroke-width=".05" fill="#3a414a"/><path d="M1740.47 504.1H1925" stroke="#3a414a" stroke-width="7" fill="none"/><path d="M1740.56 507.6h-3.6v-7h3.6zM1928.5 507.6h-3.58v-7h3.6z" stroke="#3a414a" stroke-width=".05" fill="#3a414a"/><path d="M2275.47 504.1h135.9" stroke="#3a414a" stroke-width="7" fill="none"/><path d="M2275.56 507.6h-3.6v-7h3.6zM2414.88 507.6h-3.6v-7h3.6z" stroke="#3a414a" stroke-width=".05" fill="#3a414a"/><path d="M1565.24 752.3v184.54" stroke="#3a414a" stroke-width="7" fill="none"/><path d="M1568.74 752.38h-7v-3.6h7zM1568.74 940.34h-7v-3.6h7z" stroke="#3a414a" stroke-width=".05" fill="#3a414a"/><defs><path fill="#008a0e" d="M622-916c-112 2-200 14-200 111 0 90 89 101 168 121 234 58 514 77 514 368C1104-4 751 54 434 5 267-21 161-112 121-270l247-37c24 111 113 145 252 141 114-3 226-12 226-124 0-101-103-113-192-134-225-54-490-76-490-351 0-247 201-328 458-328 245 0 413 88 457 292l-249 26c-16-98-92-133-208-131" id="h"/><path fill="#008a0e" d="M711 13c-250 0-386-99-385-349l2-556H161v-190h181l88-282h176v282h385v190H606v530c-10 130 45 186 174 184 91-2 176-11 255-27v186C933-1 833 13 711 13" id="i"/><path fill="#008a0e" d="M143 212c82 12 185 12 233-31 50-45 83-117 110-192L38-1082h297c100 284 211 557 291 861 72-305 176-578 270-861h294L742 57c-80 192-156 368-417 368-60 0-131-4-182-13V212" id="j"/><path fill="#008a0e" d="M794-190h353V0H118v-190h395v-1104H223v-190h571v1294" id="k"/><path fill="#008a0e" d="M1113-274C1038-96 884 20 626 20c-352 0-526-209-526-566 0-358 185-556 530-556 358 0 496 251 499 615H395c5 180 68 319 245 319 102 0 186-45 208-129zM857-663c-6-177-128-307-315-247-94 30-141 121-145 247h460" id="l"/><path fill="#008a0e" d="M470 0v-305h289V0H470" id="m"/><path fill="#008a0e" d="M1109-360C1066-122 902 20 624 20c-347 0-514-209-514-555 0-353 168-567 518-567 270 0 425 136 473 361l-283 14c-16-106-75-183-196-182-75 0-130 31-165 93s-52 152-52 270c0 249 74 374 221 374 120 0 188-82 201-201" id="n"/><g id="a"><use transform="matrix(0.017361111111111105,0,0,0.017361111111111105,0,0)" xlink:href="#h"/><use transform="matrix(0.017361111111111105,0,0,0.017361111111111105,21.336805555555546,0)" xlink:href="#i"/><use transform="matrix(0.017361111111111105,0,0,0.017361111111111105,42.67361111111109,0)" xlink:href="#j"/><use transform="matrix(0.017361111111111105,0,0,0.017361111111111105,64.01041666666664,0)" xlink:href="#k"/><use transform="matrix(0.017361111111111105,0,0,0.017361111111111105,85.34722222222219,0)" xlink:href="#l"/><use transform="matrix(0.017361111111111105,0,0,0.017361111111111105,106.68402777777773,0)" xlink:href="#m"/><use transform="matrix(0.017361111111111105,0,0,0.017361111111111105,128.0208333333333,0)" xlink:href="#n"/><use transform="matrix(0.017361111111111105,0,0,0.017361111111111105,149.35763888888883,0)" xlink:href="#h"/><use transform="matrix(0.017361111111111105,0,0,0.017361111111111105,170.69444444444437,0)" xlink:href="#h"/></g><path d="M424-1484c-2 206 5 424-8 618h4c67-145 160-234 348-236 251-3 335 167 336 416V0H824v-621c0-150-23-276-173-270-163 7-227 142-227 312V0H143v-1484h281" id="o"/><path d="M1113-274C1038-96 884 20 626 20c-352 0-526-209-526-566 0-358 185-556 530-556 358 0 496 251 499 615H395c5 180 68 319 245 319 102 0 186-45 208-129zM857-663c-6-177-128-307-315-247-94 30-141 121-145 247h460" id="p"/><path d="M794-190h353V0H118v-190h395v-1104H223v-190h571v1294" id="q"/><path d="M427-171c3 195 2 397 2 596H148V-846c1-83-4-168-8-236h272c10 49 14 118 15 176h4c59-114 151-197 316-197 291 0 385 259 385 560 0 243-65 433-220 521-50 28-109 42-176 42-162-2-253-78-309-191zm69-661c-91 113-92 463-1 586 46 62 145 101 225 54 96-57 118-191 119-351 0-123-18-215-53-276-46-82-128-115-220-74-25 12-48 33-70 61" id="r"/><path d="M875-1102c70 0 148 7 206 17v237c-110-17-267-37-359 15-123 69-192 207-192 395V0H250c-10-367 32-789-52-1082h271c19 69 36 149 46 228h4c52-151 151-250 356-248" id="s"/><path d="M622-916c-112 2-200 14-200 111 0 90 89 101 168 121 234 58 514 77 514 368C1104-4 751 54 434 5 267-21 161-112 121-270l247-37c24 111 113 145 252 141 114-3 226-12 226-124 0-101-103-113-192-134-225-54-490-76-490-351 0-247 201-328 458-328 245 0 413 88 457 292l-249 26c-16-98-92-133-208-131" id="t"/><path d="M470 0v-305h289V0H470" id="u"/><path d="M380 206c143 0 202-71 202-216v-882H228v-190h636V13c-6 279-184 412-459 412-107 0-208-16-288-43V172c69 16 169 34 263 34zm203-1483v-207h281v207H583" id="v"/><g id="b"><use transform="matrix(0.017361111111111105,0,0,0.017361111111111105,0,0)" xlink:href="#o"/><use transform="matrix(0.017361111111111105,0,0,0.017361111111111105,21.336805555555546,0)" xlink:href="#p"/><use transform="matrix(0.017361111111111105,0,0,0.017361111111111105,42.67361111111109,0)" xlink:href="#q"/><use transform="matrix(0.017361111111111105,0,0,0.017361111111111105,64.01041666666664,0)" xlink:href="#r"/><use transform="matrix(0.017361111111111105,0,0,0.017361111111111105,85.34722222222219,0)" xlink:href="#p"/><use transform="matrix(0.017361111111111105,0,0,0.017361111111111105,106.68402777777773,0)" xlink:href="#s"/><use transform="matrix(0.017361111111111105,0,0,0.017361111111111105,128.0208333333333,0)" xlink:href="#t"/><use transform="matrix(0.017361111111111105,0,0,0.017361111111111105,149.35763888888883,0)" xlink:href="#u"/><use transform="matrix(0.017361111111111105,0,0,0.017361111111111105,170.69444444444437,0)" xlink:href="#v"/><use transform="matrix(0.017361111111111105,0,0,0.017361111111111105,192.0312499999999,0)" xlink:href="#t"/></g><path d="M934-1102c199 0 220 177 220 381V0H926c-2-260 10-533-4-785-4-72-14-138-83-138-34 0-61 27-81 81s-29 134-29 241V0H501c-2-260 9-533-5-785-4-72-13-138-82-138-46 0-65 47-80 93-21 67-30 155-30 248V0H75c-3-360 6-732-6-1082h209c6 50 3 123 8 175 36-100 83-195 216-195 135 0 166 79 196 196 42-105 93-196 236-196" id="w"/><path d="M775-193C708-75 621 20 439 20 226 20 106-93 106-306c0-251 170-341 417-346l223-4c4-143-12-264-148-264-103 0-141 58-150 153l-293-14c37-219 194-321 455-321 263 0 418 130 417 390v392c1 84 5 161 89 160 21 0 42-2 62-6v152c-57 15-108 27-180 26-145 0-202-73-217-205h-6zm-256 17c168 0 234-139 227-325-166 4-347-25-347 173 0 94 33 152 120 152" id="x"/><path d="M794-190h353V0H118v-190h395v-702H223v-190h571v892zM513-1277v-207h281v207H513" id="y"/><path d="M324-409v-244h580v244H324" id="z"/><path d="M874 0L612-392 348 0H49l406-559-387-523h303l241 354 240-354h305L770-562 1179 0H874" id="A"/><g id="c"><use transform="matrix(0.014105902777777776,0,0,0.014105902777777776,0,0)" xlink:href="#p"/><use transform="matrix(0.014105902777777776,0,0,0.014105902777777776,17.336154513888886,0)" xlink:href="#w"/><use transform="matrix(0.014105902777777776,0,0,0.014105902777777776,34.67230902777777,0)" xlink:href="#x"/><use transform="matrix(0.014105902777777776,0,0,0.014105902777777776,52.00846354166666,0)" xlink:href="#y"/><use transform="matrix(0.014105902777777776,0,0,0.014105902777777776,69.34461805555554,0)" xlink:href="#q"/><use transform="matrix(0.014105902777777776,0,0,0.014105902777777776,86.68077256944443,0)" xlink:href="#t"/><use transform="matrix(0.014105902777777776,0,0,0.014105902777777776,104.01692708333331,0)" xlink:href="#z"/><use transform="matrix(0.014105902777777776,0,0,0.014105902777777776,121.35308159722221,0)" xlink:href="#p"/><use transform="matrix(0.014105902777777776,0,0,0.014105902777777776,138.6892361111111,0)" xlink:href="#A"/><use transform="matrix(0.014105902777777776,0,0,0.014105902777777776,156.02539062499997,0)" xlink:href="#x"/><use transform="matrix(0.014105902777777776,0,0,0.014105902777777776,173.36154513888886,0)" xlink:href="#w"/><use transform="matrix(0.014105902777777776,0,0,0.014105902777777776,190.69769965277774,0)" xlink:href="#r"/><use transform="matrix(0.014105902777777776,0,0,0.014105902777777776,208.03385416666663,0)" xlink:href="#q"/><use transform="matrix(0.014105902777777776,0,0,0.014105902777777776,225.37000868055551,0)" xlink:href="#p"/><use transform="matrix(0.014105902777777776,0,0,0.014105902777777776,242.70616319444443,0)" xlink:href="#u"/><use transform="matrix(0.014105902777777776,0,0,0.014105902777777776,260.04231770833326,0)" xlink:href="#v"/><use transform="matrix(0.014105902777777776,0,0,0.014105902777777776,277.3784722222222,0)" xlink:href="#t"/></g><path fill="#e81313" d="M794-190h353V0H118v-190h395v-702H223v-190h571v892zM513-1277v-207h281v207H513" id="B"/><path fill="#e81313" d="M768-1103c247 0 336 167 336 416V0H824v-619c-3-164-24-273-171-273-164 0-229 142-229 312V0H143c-4-359 9-736-8-1082h268c7 63 12 146 13 215h4c67-145 160-236 348-236" id="C"/><path fill="#e81313" d="M802-909c-3-189-2-383-2-575h281v1248c-1 83 4 168 8 236H817c-9-50-14-117-15-176h-4C735-49 651 20 482 20 191 20 97-238 97-539c0-243 66-432 221-519 50-28 108-42 175-42 162 2 253 78 309 191zm-70 658c91-113 93-462 2-584-46-61-145-100-224-53-96 56-119 190-120 349 0 123 17 214 52 275 46 82 130 115 222 74 25-12 46-33 68-61" id="D"/><path fill="#e81313" d="M1113-274C1038-96 884 20 626 20c-352 0-526-209-526-566 0-358 185-556 530-556 358 0 496 251 499 615H395c5 180 68 319 245 319 102 0 186-45 208-129zM857-663c-6-177-128-307-315-247-94 30-141 121-145 247h460" id="E"/><path fill="#e81313" d="M874 0L612-392 348 0H49l406-559-387-523h303l241 354 240-354h305L770-562 1179 0H874" id="F"/><path fill="#e81313" d="M470 0v-305h289V0H470" id="G"/><path fill="#e81313" d="M424-1484c-2 206 5 424-8 618h4c67-145 160-234 348-236 251-3 335 167 336 416V0H824v-621c0-150-23-276-173-270-163 7-227 142-227 312V0H143v-1484h281" id="H"/><path fill="#e81313" d="M711 13c-250 0-386-99-385-349l2-556H161v-190h181l88-282h176v282h385v190H606v530c-10 130 45 186 174 184 91-2 176-11 255-27v186C933-1 833 13 711 13" id="I"/><path fill="#e81313" d="M934-1102c199 0 220 177 220 381V0H926c-2-260 10-533-4-785-4-72-14-138-83-138-34 0-61 27-81 81s-29 134-29 241V0H501c-2-260 9-533-5-785-4-72-13-138-82-138-46 0-65 47-80 93-21 67-30 155-30 248V0H75c-3-360 6-732-6-1082h209c6 50 3 123 8 175 36-100 83-195 216-195 135 0 166 79 196 196 42-105 93-196 236-196" id="J"/><path fill="#e81313" d="M794-190h353V0H118v-190h395v-1104H223v-190h571v1294" id="K"/><g id="d"><use transform="matrix(0.017361111111111105,0,0,0.017361111111111105,0,0)" xlink:href="#B"/><use transform="matrix(0.017361111111111105,0,0,0.017361111111111105,21.336805555555546,0)" xlink:href="#C"/><use transform="matrix(0.017361111111111105,0,0,0.017361111111111105,42.67361111111109,0)" xlink:href="#D"/><use transform="matrix(0.017361111111111105,0,0,0.017361111111111105,64.01041666666664,0)" xlink:href="#E"/><use transform="matrix(0.017361111111111105,0,0,0.017361111111111105,85.34722222222219,0)" xlink:href="#F"/><use transform="matrix(0.017361111111111105,0,0,0.017361111111111105,106.68402777777773,0)" xlink:href="#G"/><use transform="matrix(0.017361111111111105,0,0,0.017361111111111105,128.0208333333333,0)" xlink:href="#H"/><use transform="matrix(0.017361111111111105,0,0,0.017361111111111105,149.35763888888883,0)" xlink:href="#I"/><use transform="matrix(0.017361111111111105,0,0,0.017361111111111105,170.69444444444437,0)" xlink:href="#J"/><use transform="matrix(0.017361111111111105,0,0,0.017361111111111105,192.0312499999999,0)" xlink:href="#K"/></g><path d="M1028 0H784c-56-191-119-378-170-573C562-377 495-191 437 0H194L11-1082h228c32 239 67 472 95 714 4 40 7 80 7 119 53-195 119-378 177-568h193c56 190 120 371 169 568-1-79 11-158 21-226l91-607h226" id="L"/><path d="M616-1102c361 0 521 202 521 560 0 354-171 562-527 562C259 20 92-192 92-542c0-351 169-560 524-560zm-9 930c200-2 236-165 236-370 0-199-27-367-223-367-195 0-233 146-233 367 0 129 18 223 55 282s92 88 165 88" id="M"/><path d="M864 0L575-490l-121 84V0H173v-1484h281v850l386-448h302L762-660 1171 0H864" id="N"/><g id="e"><use transform="matrix(0.017361111111111105,0,0,0.017361111111111105,0,0)" xlink:href="#L"/><use transform="matrix(0.017361111111111105,0,0,0.017361111111111105,21.336805555555546,0)" xlink:href="#M"/><use transform="matrix(0.017361111111111105,0,0,0.017361111111111105,42.67361111111109,0)" xlink:href="#s"/><use transform="matrix(0.017361111111111105,0,0,0.017361111111111105,64.01041666666664,0)" xlink:href="#N"/><use transform="matrix(0.017361111111111105,0,0,0.017361111111111105,85.34722222222219,0)" xlink:href="#p"/><use transform="matrix(0.017361111111111105,0,0,0.017361111111111105,106.68402777777773,0)" xlink:href="#s"/><use transform="matrix(0.017361111111111105,0,0,0.017361111111111105,128.0208333333333,0)" xlink:href="#u"/><use transform="matrix(0.017361111111111105,0,0,0.017361111111111105,149.35763888888883,0)" xlink:href="#v"/><use transform="matrix(0.017361111111111105,0,0,0.017361111111111105,170.69444444444437,0)" xlink:href="#t"/></g><path d="M768-1103c247 0 336 167 336 416V0H824v-619c-3-164-24-273-171-273-164 0-229 142-229 312V0H143c-4-359 9-736-8-1082h268c7 63 12 146 13 215h4c67-145 160-236 348-236" id="O"/><g id="f"><use transform="matrix(0.017361111111111105,0,0,0.017361111111111105,0,0)" xlink:href="#w"/><use transform="matrix(0.017361111111111105,0,0,0.017361111111111105,21.336805555555546,0)" xlink:href="#x"/><use transform="matrix(0.017361111111111105,0,0,0.017361111111111105,42.67361111111109,0)" xlink:href="#y"/><use transform="matrix(0.017361111111111105,0,0,0.017361111111111105,64.01041666666664,0)" xlink:href="#O"/><use transform="matrix(0.017361111111111105,0,0,0.017361111111111105,85.34722222222219,0)" xlink:href="#u"/><use transform="matrix(0.017361111111111105,0,0,0.017361111111111105,106.68402777777773,0)" xlink:href="#v"/><use transform="matrix(0.017361111111111105,0,0,0.017361111111111105,128.0208333333333,0)" xlink:href="#t"/></g><path d="M802-909c-3-189-2-383-2-575h281v1248c-1 83 4 168 8 236H817c-9-50-14-117-15-176h-4C735-49 651 20 482 20 191 20 97-238 97-539c0-243 66-432 221-519 50-28 108-42 175-42 162 2 253 78 309 191zm-70 658c91-113 93-462 2-584-46-61-145-100-224-53-96 56-119 190-120 349 0 123 17 214 52 275 46 82 130 115 222 74 25-12 46-33 68-61" id="P"/><path d="M711 13c-250 0-386-99-385-349l2-556H161v-190h181l88-282h176v282h385v190H606v530c-10 130 45 186 174 184 91-2 176-11 255-27v186C933-1 833 13 711 13" id="Q"/><path d="M1109-360C1066-122 902 20 624 20c-347 0-514-209-514-555 0-353 168-567 518-567 270 0 425 136 473 361l-283 14c-16-106-75-183-196-182-75 0-130 31-165 93s-52 152-52 270c0 249 74 374 221 374 120 0 188-82 201-201" id="R"/><g id="g"><use transform="matrix(0.015190972222222219,0,0,0.015190972222222219,0,0)" xlink:href="#t"/><use transform="matrix(0.015190972222222219,0,0,0.015190972222222219,18.669704861111107,0)" xlink:href="#r"/><use transform="matrix(0.015190972222222219,0,0,0.015190972222222219,37.339409722222214,0)" xlink:href="#x"/><use transform="matrix(0.015190972222222219,0,0,0.015190972222222219,56.00911458333332,0)" xlink:href="#w"/><use transform="matrix(0.015190972222222219,0,0,0.015190972222222219,74.67881944444443,0)" xlink:href="#z"/><use transform="matrix(0.015190972222222219,0,0,0.015190972222222219,93.34852430555554,0)" xlink:href="#P"/><use transform="matrix(0.015190972222222219,0,0,0.015190972222222219,112.01822916666666,0)" xlink:href="#p"/><use transform="matrix(0.015190972222222219,0,0,0.015190972222222219,130.68793402777777,0)" xlink:href="#Q"/><use transform="matrix(0.015190972222222219,0,0,0.015190972222222219,149.35763888888889,0)" xlink:href="#p"/><use transform="matrix(0.015190972222222219,0,0,0.015190972222222219,168.02734375,0)" xlink:href="#R"/><use transform="matrix(0.015190972222222219,0,0,0.015190972222222219,186.69704861111111,0)" xlink:href="#Q"/><use transform="matrix(0.015190972222222219,0,0,0.015190972222222219,205.36675347222223,0)" xlink:href="#M"/><use transform="matrix(0.015190972222222219,0,0,0.015190972222222219,224.03645833333334,0)" xlink:href="#s"/><use transform="matrix(0.015190972222222219,0,0,0.015190972222222219,242.70616319444446,0)" xlink:href="#u"/><use transform="matrix(0.015190972222222219,0,0,0.015190972222222219,261.37586805555554,0)" xlink:href="#v"/><use transform="matrix(0.015190972222222219,0,0,0.015190972222222219,280.04557291666663,0)" xlink:href="#t"/></g></defs></g></svg>